<?xml version="1.0" encoding="utf-8"?>
<!-- Generator: Adobe Illustrator 24.3.0, SVG Export Plug-In . SVG Version: 6.00 Build 0)  -->
<svg version="1.1" id="Calque_1" xmlns="http://www.w3.org/2000/svg" xmlns:xlink="http://www.w3.org/1999/xlink" x="0px" y="0px"
	 viewBox="0 0 2551.18 1700.79" style="enable-background:new 0 0 2551.18 1700.79;" xml:space="preserve">
<style type="text/css">
	.st0{fill:#0D4663;}
	.st1{font-family:'BanglaMN';}
	.st2{font-size:35.1744px;}
	.st3{fill:#0A3249;}
	.st4{fill:#EF8025;}
	.st5{clip-path:url(#SVGID_2_);fill:url(#SVGID_3_);}
	.st6{clip-path:url(#SVGID_5_);fill:url(#SVGID_6_);}
	.st7{clip-path:url(#SVGID_8_);fill:url(#SVGID_9_);}
	.st8{clip-path:url(#SVGID_11_);fill:url(#SVGID_12_);}
	.st9{clip-path:url(#SVGID_14_);fill:url(#SVGID_15_);}
	.st10{clip-path:url(#SVGID_17_);fill:url(#SVGID_18_);}
	.st11{clip-path:url(#SVGID_20_);fill:url(#SVGID_21_);}
	.st12{clip-path:url(#SVGID_23_);fill:url(#SVGID_24_);}
	.st13{clip-path:url(#SVGID_26_);fill:url(#SVGID_27_);}
	.st14{clip-path:url(#SVGID_29_);fill:url(#SVGID_30_);}
	.st15{clip-path:url(#SVGID_32_);fill:url(#SVGID_33_);}
	.st16{clip-path:url(#SVGID_35_);fill:url(#SVGID_36_);}
	.st17{clip-path:url(#SVGID_38_);fill:url(#SVGID_39_);}
	.st18{clip-path:url(#SVGID_41_);fill:url(#SVGID_42_);}
	.st19{clip-path:url(#SVGID_44_);fill:url(#SVGID_45_);}
	.st20{clip-path:url(#SVGID_47_);fill:url(#SVGID_48_);}
	.st21{clip-path:url(#SVGID_50_);fill:url(#SVGID_51_);}
	.st22{clip-path:url(#SVGID_53_);fill:url(#SVGID_54_);}
	.st23{clip-path:url(#SVGID_56_);fill:url(#SVGID_57_);}
	.st24{fill:#00007E;}
	.st25{clip-path:url(#SVGID_59_);fill:none;stroke:#907F81;stroke-width:5.6693;stroke-miterlimit:10;}
	.st26{fill:#907F81;}
	.st27{fill:#206B93;}
</style>
<g>
	<path class="st0" d="M1207.31,790.73l-20.52-26.74V568.7h30.47v146.78c0,0,52.86-61.08,134.96-54.17c0,0,72.14-1.8,129.98,73.45
		l87.69,156.89v111.16h-30.47V901.44l-80.85-139.93c0,0-77.74-118.17-189.07-43.53C1269.5,717.97,1225.96,737.25,1207.31,790.73"/>
	<polygon class="st0" points="1481.58,874.69 1481.58,1002.81 1510.81,1002.81 1510.81,922.58 	"/>
	<path class="st0" d="M1548.75,777.05l21.14,38.56c0,0,22.39-118.79,132.47-121.9v-32.41
		C1702.36,661.31,1587.93,658.88,1548.75,777.05"/>
	<path class="st0" d="M1156.93,901.62l-82.72-141.18c-6.41-10.45-25.52-38.51-62.81-54.11c-29.2-12.21-55.31-10.82-67.79-9.33
		c-11.36,0.65-44.43,4.01-75.25,29.23c-33.3,27.25-42.42,62.37-44.78,73.08c-2.34,9.14-13.37,55.99,14.3,103.55
		c26.76,45.98,70.74,60.02,80.23,62.81c11.84,2.19,60.37,9.74,108.84-19.9c42.14-25.77,58.65-64.02,63.44-76.5
		c12.23,20.11,24.46,40.22,36.69,60.33v72.14h-32.34l-1.24-69.03c-7.95,11.03-21.47,26.98-42.29,41.04
		c-23.93,16.16-46.86,22.66-60.95,25.5c-14.64,3-65.76,11.6-117.54-17.42c-34.01-19.06-52.41-45.47-59.7-57.21
		c-42.51-68.49-18.23-141.7-14.93-151.13c4.57-13.04,16.82-46.63,50.38-74.01c32.4-26.43,66.27-32.49,80.23-34.21
		c15.3-2.68,48.19-6.28,85.82,7.46c47.14,17.22,72.38,50.93,80.85,63.44c30.47,52.09,60.95,104.18,91.42,156.27v109.29h-28.61
		L1156.93,901.62z"/>
</g>
<text transform="matrix(1 0 0 1 1204.8315 1002.8026)" class="st0 st1 st2">COLLECTION</text>
</svg>
