<?xml version="1.0" encoding="utf-8"?>
<!-- Generator: Adobe Illustrator 24.3.0, SVG Export Plug-In . SVG Version: 6.00 Build 0)  -->
<svg version="1.1" id="Calque_1" xmlns="http://www.w3.org/2000/svg" xmlns:xlink="http://www.w3.org/1999/xlink" x="0px" y="0px"
	 viewBox="0 0 2551.18 1700.79" style="enable-background:new 0 0 2551.18 1700.79;" xml:space="preserve">
<style type="text/css">
	.st0{fill:#0D4663;}
	.st1{fill:#0A3249;}
	.st2{font-family:'GillSans';}
	.st3{font-size:100.2553px;}
	.st4{letter-spacing:-6;}
	.st5{letter-spacing:-8;}
	.st6{letter-spacing:-10;}
	.st7{font-size:68.2031px;}
	.st8{letter-spacing:-4;}
	.st9{fill:#EF8025;}
	.st10{clip-path:url(#SVGID_2_);fill:url(#SVGID_3_);}
	.st11{clip-path:url(#SVGID_5_);fill:url(#SVGID_6_);}
	.st12{clip-path:url(#SVGID_8_);fill:url(#SVGID_9_);}
	.st13{clip-path:url(#SVGID_11_);fill:url(#SVGID_12_);}
	.st14{clip-path:url(#SVGID_14_);fill:url(#SVGID_15_);}
	.st15{clip-path:url(#SVGID_17_);fill:url(#SVGID_18_);}
	.st16{clip-path:url(#SVGID_20_);fill:url(#SVGID_21_);}
	.st17{clip-path:url(#SVGID_23_);fill:url(#SVGID_24_);}
	.st18{clip-path:url(#SVGID_26_);fill:url(#SVGID_27_);}
	.st19{clip-path:url(#SVGID_29_);fill:url(#SVGID_30_);}
	.st20{clip-path:url(#SVGID_32_);fill:url(#SVGID_33_);}
	.st21{clip-path:url(#SVGID_35_);fill:url(#SVGID_36_);}
	.st22{clip-path:url(#SVGID_38_);fill:url(#SVGID_39_);}
	.st23{clip-path:url(#SVGID_41_);fill:url(#SVGID_42_);}
	.st24{clip-path:url(#SVGID_44_);fill:url(#SVGID_45_);}
	.st25{clip-path:url(#SVGID_47_);fill:url(#SVGID_48_);}
	.st26{clip-path:url(#SVGID_50_);fill:url(#SVGID_51_);}
	.st27{clip-path:url(#SVGID_53_);fill:url(#SVGID_54_);}
	.st28{clip-path:url(#SVGID_56_);fill:url(#SVGID_57_);}
	.st29{fill:#00007E;}
	.st30{clip-path:url(#SVGID_59_);fill:none;stroke:#907F81;stroke-width:5.6693;stroke-miterlimit:10;}
	.st31{fill:#907F81;}
	.st32{fill:#206B93;}
</style>
<g>
	<g>
		<polygon class="st1" points="1015.19,618.21 1039.83,618.21 1127.69,786.96 1239.08,572.67 1310.91,709.28 1298.59,731.78 
			1239.08,623.56 1127.69,837.86 		"/>
		<polygon class="st1" points="1163.05,708.74 1149.66,735 1090.73,618.74 1116.98,618.74 		"/>
		<polygon class="st1" points="1181.26,745.18 1168.41,768.75 1193.59,816.96 1252.52,705.26 1239.08,680.35 1194.12,767.14 		"/>
		<polygon class="st1" points="1264.84,730.71 1252.52,755.89 1285.73,816.96 1385.38,618.74 1360.2,618.74 1285.2,767.14 		"/>
		<polygon class="st1" points="1328.06,744.64 1316.27,767.68 1352.16,837.86 1464.13,618.74 1437.88,618.74 1351.09,786.96 		"/>
		<text transform="matrix(1 0 0 1 875.596 966.4451)"><tspan x="0" y="0" class="st1 st2 st3">LE </tspan><tspan x="127.13" y="0" class="st1 st2 st3 st4">R</tspan><tspan x="181.67" y="0" class="st1 st2 st3 st5">O</tspan><tspan x="256.18" y="0" class="st1 st2 st3 st6">Y</tspan><tspan x="305.81" y="0" class="st1 st2 st3">AL PLAZA</tspan></text>
		<rect x="883.11" y="1032.14" class="st1" width="239.44" height="18.87"/>
		<rect x="1390.2" y="1032.14" class="st1" width="239.44" height="18.87"/>
		<polygon class="st1" points="1167.74,1086.13 1173.35,1101.62 1189.81,1102.17 1176.81,1112.29 1181.38,1128.12 1167.74,1118.88 
			1154.1,1128.12 1158.67,1112.29 1145.67,1102.17 1162.13,1101.62 		"/>
		<polygon class="st1" points="1211.63,1086.13 1217.24,1101.62 1233.7,1102.17 1220.7,1112.29 1225.27,1128.12 1211.63,1118.88 
			1197.99,1128.12 1202.56,1112.29 1189.56,1102.17 1206.02,1101.62 		"/>
		<polygon class="st1" points="1255.52,1086.13 1261.13,1101.62 1277.59,1102.17 1264.6,1112.29 1269.16,1128.12 1255.52,1118.88 
			1241.88,1128.12 1246.45,1112.29 1233.45,1102.17 1249.91,1101.62 		"/>
		<polygon class="st1" points="1299.41,1086.13 1305.02,1101.62 1321.48,1102.17 1308.48,1112.29 1313.05,1128.12 1299.41,1118.88 
			1285.77,1128.12 1290.34,1112.29 1277.34,1102.17 1293.8,1101.62 		"/>
		<polygon class="st1" points="1343.3,1086.13 1348.91,1101.62 1365.37,1102.17 1352.38,1112.29 1356.94,1128.12 1343.3,1118.88 
			1329.66,1128.12 1334.23,1112.29 1321.23,1102.17 1337.69,1101.62 		"/>
		<text transform="matrix(1 0 0 1 1152.1195 1054.949)"><tspan x="0" y="0" class="st1 st2 st7">H</tspan><tspan x="49.72" y="0" class="st1 st2 st7 st8">O</tspan><tspan x="101.5" y="0" class="st1 st2 st7">TEL</tspan></text>
	</g>
</g>
</svg>
