<?xml version="1.0" encoding="utf-8"?>
<!-- Generator: Adobe Illustrator 24.3.0, SVG Export Plug-In . SVG Version: 6.00 Build 0)  -->
<svg version="1.1" id="Calque_1" xmlns="http://www.w3.org/2000/svg" xmlns:xlink="http://www.w3.org/1999/xlink" x="0px" y="0px"
	 viewBox="0 0 2551.18 1700.79" style="enable-background:new 0 0 2551.18 1700.79;" xml:space="preserve">
<style type="text/css">
	.st0{fill:#0D4663;}
	.st1{fill:#0A3249;}
	.st2{fill:#EF8025;}
	.st3{clip-path:url(#SVGID_2_);fill:url(#SVGID_3_);}
	.st4{clip-path:url(#SVGID_5_);fill:url(#SVGID_6_);}
	.st5{clip-path:url(#SVGID_8_);fill:url(#SVGID_9_);}
	.st6{clip-path:url(#SVGID_11_);fill:url(#SVGID_12_);}
	.st7{clip-path:url(#SVGID_14_);fill:url(#SVGID_15_);}
	.st8{clip-path:url(#SVGID_17_);fill:url(#SVGID_18_);}
	.st9{clip-path:url(#SVGID_20_);fill:url(#SVGID_21_);}
	.st10{clip-path:url(#SVGID_23_);fill:url(#SVGID_24_);}
	.st11{clip-path:url(#SVGID_26_);fill:url(#SVGID_27_);}
	.st12{clip-path:url(#SVGID_29_);fill:url(#SVGID_30_);}
	.st13{clip-path:url(#SVGID_32_);fill:url(#SVGID_33_);}
	.st14{clip-path:url(#SVGID_35_);fill:url(#SVGID_36_);}
	.st15{clip-path:url(#SVGID_38_);fill:url(#SVGID_39_);}
	.st16{clip-path:url(#SVGID_41_);fill:url(#SVGID_42_);}
	.st17{clip-path:url(#SVGID_44_);fill:url(#SVGID_45_);}
	.st18{clip-path:url(#SVGID_47_);fill:url(#SVGID_48_);}
	.st19{clip-path:url(#SVGID_50_);fill:url(#SVGID_51_);}
	.st20{clip-path:url(#SVGID_53_);fill:url(#SVGID_54_);}
	.st21{clip-path:url(#SVGID_56_);fill:url(#SVGID_57_);}
	.st22{fill:#00007E;}
	.st23{clip-path:url(#SVGID_59_);fill:none;stroke:#907F81;stroke-width:5.6693;stroke-miterlimit:10;}
	.st24{fill:#907F81;}
	.st25{fill:#206B93;}
</style>
<g>
	<rect x="861.36" y="315.93" class="st22" width="683.88" height="43.7"/>
	<rect x="861.36" y="1028.39" class="st22" width="683.88" height="43.68"/>
	<polygon class="st22" points="811.51,315.93 854.64,315.93 854.08,1072.05 811.51,1072.05 	"/>
	<polygon class="st22" points="1556.07,315.93 1599.2,315.93 1598.64,1072.05 1556.07,1072.05 	"/>
	<rect x="1041.16" y="371.37" class="st22" width="322.61" height="60.49"/>
	<rect x="1172.21" y="447" class="st22" width="56.96" height="285.64"/>
	<polygon class="st22" points="883.2,371.38 945.37,371.38 1200.69,956.12 1200.69,1018.28 1162.12,1018.28 	"/>
	<polygon class="st22" points="1461.22,371.38 1210.86,958.92 1210.86,1018.28 1241.66,1018.28 1520.03,371.38 	"/>
	<g>
		<defs>
			<polygon id="SVGID_58_" points="1241.66,1029.21 1545.22,1029.21 1545.22,360.45 			"/>
		</defs>
		<clipPath id="SVGID_2_">
			<use xlink:href="#SVGID_58_"  style="overflow:visible;"/>
		</clipPath>
		
			<line style="clip-path:url(#SVGID_2_);fill:none;stroke:#907F81;stroke-width:5.6693;stroke-miterlimit:10;" x1="1239.89" y1="374.67" x2="1588.14" y2="374.67"/>
		
			<line style="clip-path:url(#SVGID_2_);fill:none;stroke:#907F81;stroke-width:5.6693;stroke-miterlimit:10;" x1="1239.89" y1="391.16" x2="1588.14" y2="391.16"/>
		
			<line style="clip-path:url(#SVGID_2_);fill:none;stroke:#907F81;stroke-width:5.6693;stroke-miterlimit:10;" x1="1239.89" y1="407.66" x2="1588.14" y2="407.66"/>
		
			<line style="clip-path:url(#SVGID_2_);fill:none;stroke:#907F81;stroke-width:5.6693;stroke-miterlimit:10;" x1="1239.89" y1="424.16" x2="1588.14" y2="424.16"/>
		
			<line style="clip-path:url(#SVGID_2_);fill:none;stroke:#907F81;stroke-width:5.6693;stroke-miterlimit:10;" x1="1239.89" y1="440.65" x2="1588.14" y2="440.65"/>
		
			<line style="clip-path:url(#SVGID_2_);fill:none;stroke:#907F81;stroke-width:5.6693;stroke-miterlimit:10;" x1="1239.89" y1="457.15" x2="1588.14" y2="457.15"/>
		
			<line style="clip-path:url(#SVGID_2_);fill:none;stroke:#907F81;stroke-width:5.6693;stroke-miterlimit:10;" x1="1239.89" y1="473.64" x2="1588.14" y2="473.64"/>
		
			<line style="clip-path:url(#SVGID_2_);fill:none;stroke:#907F81;stroke-width:5.6693;stroke-miterlimit:10;" x1="1239.89" y1="490.14" x2="1588.14" y2="490.14"/>
		
			<line style="clip-path:url(#SVGID_2_);fill:none;stroke:#907F81;stroke-width:5.6693;stroke-miterlimit:10;" x1="1239.89" y1="506.64" x2="1588.14" y2="506.64"/>
		
			<line style="clip-path:url(#SVGID_2_);fill:none;stroke:#907F81;stroke-width:5.6693;stroke-miterlimit:10;" x1="1239.89" y1="523.13" x2="1588.14" y2="523.13"/>
		
			<line style="clip-path:url(#SVGID_2_);fill:none;stroke:#907F81;stroke-width:5.6693;stroke-miterlimit:10;" x1="1239.89" y1="539.63" x2="1588.14" y2="539.63"/>
		
			<line style="clip-path:url(#SVGID_2_);fill:none;stroke:#907F81;stroke-width:5.6693;stroke-miterlimit:10;" x1="1239.89" y1="556.13" x2="1588.14" y2="556.13"/>
		
			<line style="clip-path:url(#SVGID_2_);fill:none;stroke:#907F81;stroke-width:5.6693;stroke-miterlimit:10;" x1="1239.89" y1="572.62" x2="1588.14" y2="572.62"/>
		
			<line style="clip-path:url(#SVGID_2_);fill:none;stroke:#907F81;stroke-width:5.6693;stroke-miterlimit:10;" x1="1239.89" y1="589.12" x2="1588.14" y2="589.12"/>
		
			<line style="clip-path:url(#SVGID_2_);fill:none;stroke:#907F81;stroke-width:5.6693;stroke-miterlimit:10;" x1="1239.89" y1="605.62" x2="1588.14" y2="605.62"/>
		
			<line style="clip-path:url(#SVGID_2_);fill:none;stroke:#907F81;stroke-width:5.6693;stroke-miterlimit:10;" x1="1239.89" y1="622.11" x2="1588.14" y2="622.11"/>
		
			<line style="clip-path:url(#SVGID_2_);fill:none;stroke:#907F81;stroke-width:5.6693;stroke-miterlimit:10;" x1="1239.89" y1="638.61" x2="1588.14" y2="638.61"/>
		
			<line style="clip-path:url(#SVGID_2_);fill:none;stroke:#907F81;stroke-width:5.6693;stroke-miterlimit:10;" x1="1239.89" y1="655.11" x2="1588.14" y2="655.11"/>
		
			<line style="clip-path:url(#SVGID_2_);fill:none;stroke:#907F81;stroke-width:5.6693;stroke-miterlimit:10;" x1="1239.89" y1="671.6" x2="1588.14" y2="671.6"/>
		
			<line style="clip-path:url(#SVGID_2_);fill:none;stroke:#907F81;stroke-width:5.6693;stroke-miterlimit:10;" x1="1239.89" y1="688.1" x2="1588.14" y2="688.1"/>
		
			<line style="clip-path:url(#SVGID_2_);fill:none;stroke:#907F81;stroke-width:5.6693;stroke-miterlimit:10;" x1="1239.89" y1="704.59" x2="1588.14" y2="704.59"/>
		
			<line style="clip-path:url(#SVGID_2_);fill:none;stroke:#907F81;stroke-width:5.6693;stroke-miterlimit:10;" x1="1239.89" y1="721.09" x2="1588.14" y2="721.09"/>
		
			<line style="clip-path:url(#SVGID_2_);fill:none;stroke:#907F81;stroke-width:5.6693;stroke-miterlimit:10;" x1="1239.89" y1="737.59" x2="1588.14" y2="737.59"/>
		
			<line style="clip-path:url(#SVGID_2_);fill:none;stroke:#907F81;stroke-width:5.6693;stroke-miterlimit:10;" x1="1239.89" y1="754.08" x2="1588.14" y2="754.08"/>
		
			<line style="clip-path:url(#SVGID_2_);fill:none;stroke:#907F81;stroke-width:5.6693;stroke-miterlimit:10;" x1="1239.89" y1="770.58" x2="1588.14" y2="770.58"/>
		
			<line style="clip-path:url(#SVGID_2_);fill:none;stroke:#907F81;stroke-width:5.6693;stroke-miterlimit:10;" x1="1239.89" y1="787.08" x2="1588.14" y2="787.08"/>
		
			<line style="clip-path:url(#SVGID_2_);fill:none;stroke:#907F81;stroke-width:5.6693;stroke-miterlimit:10;" x1="1239.89" y1="803.57" x2="1588.14" y2="803.57"/>
		
			<line style="clip-path:url(#SVGID_2_);fill:none;stroke:#907F81;stroke-width:5.6693;stroke-miterlimit:10;" x1="1239.89" y1="820.07" x2="1588.14" y2="820.07"/>
		
			<line style="clip-path:url(#SVGID_2_);fill:none;stroke:#907F81;stroke-width:5.6693;stroke-miterlimit:10;" x1="1239.89" y1="836.56" x2="1588.14" y2="836.56"/>
		
			<line style="clip-path:url(#SVGID_2_);fill:none;stroke:#907F81;stroke-width:5.6693;stroke-miterlimit:10;" x1="1239.89" y1="853.06" x2="1588.14" y2="853.06"/>
		
			<line style="clip-path:url(#SVGID_2_);fill:none;stroke:#907F81;stroke-width:5.6693;stroke-miterlimit:10;" x1="1239.89" y1="869.56" x2="1588.14" y2="869.56"/>
		
			<line style="clip-path:url(#SVGID_2_);fill:none;stroke:#907F81;stroke-width:5.6693;stroke-miterlimit:10;" x1="1239.89" y1="886.05" x2="1588.14" y2="886.05"/>
		
			<line style="clip-path:url(#SVGID_2_);fill:none;stroke:#907F81;stroke-width:5.6693;stroke-miterlimit:10;" x1="1239.89" y1="902.55" x2="1588.14" y2="902.55"/>
		
			<line style="clip-path:url(#SVGID_2_);fill:none;stroke:#907F81;stroke-width:5.6693;stroke-miterlimit:10;" x1="1239.89" y1="919.05" x2="1588.14" y2="919.05"/>
		
			<line style="clip-path:url(#SVGID_2_);fill:none;stroke:#907F81;stroke-width:5.6693;stroke-miterlimit:10;" x1="1239.89" y1="935.54" x2="1588.14" y2="935.54"/>
		
			<line style="clip-path:url(#SVGID_2_);fill:none;stroke:#907F81;stroke-width:5.6693;stroke-miterlimit:10;" x1="1239.89" y1="952.04" x2="1588.14" y2="952.04"/>
		
			<line style="clip-path:url(#SVGID_2_);fill:none;stroke:#907F81;stroke-width:5.6693;stroke-miterlimit:10;" x1="1239.89" y1="968.54" x2="1588.14" y2="968.54"/>
		
			<line style="clip-path:url(#SVGID_2_);fill:none;stroke:#907F81;stroke-width:5.6693;stroke-miterlimit:10;" x1="1239.89" y1="985.03" x2="1588.14" y2="985.03"/>
		
			<line style="clip-path:url(#SVGID_2_);fill:none;stroke:#907F81;stroke-width:5.6693;stroke-miterlimit:10;" x1="1239.89" y1="1001.53" x2="1588.14" y2="1001.53"/>
		
			<line style="clip-path:url(#SVGID_2_);fill:none;stroke:#907F81;stroke-width:5.6693;stroke-miterlimit:10;" x1="1239.89" y1="1018.02" x2="1588.14" y2="1018.02"/>
		
			<line style="clip-path:url(#SVGID_2_);fill:none;stroke:#907F81;stroke-width:5.6693;stroke-miterlimit:10;" x1="1239.89" y1="1034.52" x2="1588.14" y2="1034.52"/>
		
			<line style="clip-path:url(#SVGID_2_);fill:none;stroke:#907F81;stroke-width:5.6693;stroke-miterlimit:10;" x1="1239.89" y1="1051.02" x2="1588.14" y2="1051.02"/>
		
			<line style="clip-path:url(#SVGID_2_);fill:none;stroke:#907F81;stroke-width:5.6693;stroke-miterlimit:10;" x1="1239.89" y1="1067.51" x2="1588.14" y2="1067.51"/>
		
			<line style="clip-path:url(#SVGID_2_);fill:none;stroke:#907F81;stroke-width:5.6693;stroke-miterlimit:10;" x1="1239.89" y1="1084.01" x2="1588.14" y2="1084.01"/>
		
			<line style="clip-path:url(#SVGID_2_);fill:none;stroke:#907F81;stroke-width:5.6693;stroke-miterlimit:10;" x1="1239.89" y1="1100.51" x2="1588.14" y2="1100.51"/>
	</g>
	<polygon class="st24" points="1064.5,1155.41 1064.5,1090.52 1071.55,1090.52 1071.55,1117.16 1099.2,1117.16 1099.2,1090.52 
		1106.24,1090.52 1106.24,1155.41 1099.2,1155.41 1099.2,1124.83 1071.55,1124.83 1071.55,1155.41 	"/>
	<path class="st24" d="M1116.2,1123.8c0-11.06,2.44-19.58,7.31-25.51c4.86-5.95,10.94-8.92,18.21-8.92c4.68,0,8.96,1.33,12.84,3.98
		c3.86,2.66,6.92,6.52,9.16,11.59c2.28,5.07,3.39,11.08,3.39,18.08c0,9.63-2.18,17.46-6.54,23.49c-4.8,6.68-11.12,10.01-18.91,10.01
		c-7.85,0-14.15-3.43-18.93-10.27C1118.38,1140.04,1116.2,1132.58,1116.2,1123.8 M1123.47,1123.92c0,8.01,1.76,14.21,5.29,18.63
		c3.53,4.42,7.81,6.62,12.86,6.62c5.17,0,9.51-2.24,13-6.7c3.49-4.44,5.25-11,5.25-19.66c0-5.59-0.91-10.58-2.7-14.98
		c-1.39-3.37-3.47-6.06-6.28-8.07c-2.77-2.04-5.83-3.05-9.12-3.05c-5.31,0-9.69,2.22-13.12,6.64
		C1125.18,1107.79,1123.47,1114.63,1123.47,1123.92"/>
	<polygon class="st24" points="1189.69,1155.41 1189.69,1098.17 1172.17,1098.17 1172.17,1090.52 1214.35,1090.52 1214.35,1098.17 
		1196.73,1098.17 1196.73,1155.41 	"/>
	<polygon class="st24" points="1221.6,1155.41 1221.6,1090.52 1260.07,1090.52 1260.07,1098.17 1228.65,1098.17 1228.65,1118.01 
		1258.08,1118.01 1258.08,1125.66 1228.65,1125.66 1228.65,1147.76 1261.3,1147.76 1261.3,1155.41 	"/>
	<polygon class="st24" points="1270.61,1155.41 1270.61,1090.52 1277.65,1090.52 1277.65,1147.76 1303.85,1147.76 1303.85,1155.41 	
		"/>
	<path class="st24" d="M1017.84,1285.96l-24.79-77.87h9.12l16.67,56.57c1.27,4.38,2.38,8.64,3.33,12.74
		c0.99-4.28,2.14-8.54,3.41-12.74l17.28-56.57h8.62l-24.97,77.87H1017.84z"/>
	<rect x="1060.61" y="1208.08" class="st24" width="8.44" height="77.87"/>
	<polygon class="st24" points="1100.19,1285.96 1100.19,1217.27 1079.16,1217.27 1079.16,1208.09 1129.78,1208.09 1129.78,1217.27 
		1108.63,1217.27 1108.63,1285.96 	"/>
	<path class="st24" d="M1124.77,1285.95l24.64-77.87h9.02l26.16,77.87h-9.67l-7.43-23.57h-26.86l-6.94,23.57H1124.77z
		 M1143.1,1253.98h21.76l-6.64-21.58c-2.06-6.62-3.55-11.99-4.52-16.15c-0.81,5.01-1.98,9.95-3.49,14.88L1143.1,1253.98z"/>
	<polygon class="st24" points="1190.76,1285.96 1190.76,1208.09 1199.19,1208.09 1199.19,1276.77 1230.66,1276.77 1230.66,1285.96 	
		"/>
	<rect x="1242.49" y="1208.08" class="st24" width="8.44" height="77.87"/>
	<polygon class="st24" points="1282.07,1285.96 1282.07,1217.27 1261.04,1217.27 1261.04,1208.09 1311.66,1208.09 1311.66,1217.27 
		1290.51,1217.27 1290.51,1285.96 	"/>
	<path class="st24" d="M1338.16,1285.96v-32.98l-24.6-44.89h10.33l12.53,23.49c2.48,4.64,4.66,9.04,6.54,13.18
		c1.88-4.06,4.2-8.66,6.96-13.77l12.41-22.91h9.77l-25.51,44.89v32.98H1338.16z"/>
	<polygon class="st22" points="1025.5,1383.87 1025.5,1332.36 1009.72,1332.36 1009.72,1325.46 1047.7,1325.46 1047.7,1332.36 
		1031.84,1332.36 1031.84,1383.87 	"/>
	<polygon class="st22" points="1054.22,1383.87 1054.22,1325.46 1088.86,1325.46 1088.86,1332.36 1060.56,1332.36 1060.56,1350.2 
		1087.04,1350.2 1087.04,1357.1 1060.56,1357.1 1060.56,1376.98 1089.97,1376.98 1089.97,1383.87 	"/>
	<path class="st22" d="M1098.69,1383.87v-58.41h21.23c4.44,0,7.71,0.54,9.83,1.63c2.1,1.09,3.83,2.91,5.21,5.43
		c1.33,2.54,2.02,5.49,2.02,8.82c0,4.4-1.15,7.97-3.45,10.72c-2.3,2.72-5.63,4.46-10.01,5.21c1.78,1.07,3.13,2.16,4.06,3.25
		c1.9,2.24,3.55,4.72,4.99,7.45l8.36,15.9h-7.97l-6.38-12.15c-2.46-4.74-4.34-7.95-5.59-9.59c-1.27-1.66-2.48-2.77-3.67-3.35
		c-1.17-0.57-2.83-0.85-4.94-0.85h-7.33v25.94H1098.69z M1105.02,1351.23h13.62c2.97,0,5.23-0.36,6.78-1.07
		c1.53-0.73,2.74-1.84,3.65-3.39c0.91-1.53,1.35-3.33,1.35-5.37c0-2.95-0.87-5.27-2.58-6.96c-1.74-1.68-4.3-2.52-7.69-2.52h-15.14
		V1351.23z"/>
	<path class="st22" d="M1146.81,1383.87v-58.41h9.53l11.36,41.36l2.28,8.64c0.57-2.14,1.41-5.27,2.56-9.34l11.48-40.65h8.52v58.41
		h-6.1v-48.84l-13.97,48.84h-5.69l-13.89-49.69v49.69H1146.81z"/>
	<rect x="1203.96" y="1325.47" class="st22" width="6.34" height="58.41"/>
	<polygon class="st22" points="1221.15,1383.87 1221.15,1325.46 1227.65,1325.46 1252.82,1371.41 1252.82,1325.46 1258.87,1325.46 
		1258.87,1383.87 1252.4,1383.87 1227.25,1337.91 1227.25,1383.87 	"/>
	<path class="st22" d="M1300.92,1325.46h6.34v33.75c0,5.65-0.57,10.29-1.66,13.93c-1.11,3.61-3.11,6.48-6.01,8.58
		c-2.91,2.1-6.6,3.15-11.08,3.15c-6.32,0-11.04-1.88-14.19-5.65c-3.15-3.77-4.72-10.46-4.72-20v-33.75h6.34v33.71
		c0,5.29,0.4,9.1,1.25,11.46c0.81,2.36,2.16,4.18,4.04,5.41c1.88,1.23,4.14,1.86,6.82,1.86c4.52,0,7.79-1.29,9.83-3.83
		c2.04-2.54,3.05-7.51,3.05-14.9V1325.46z"/>
	<path class="st22" d="M1315.77,1365.06l5.97-0.65c0.32,3.23,1.05,5.73,2.18,7.51c1.13,1.8,2.74,3.25,4.82,4.32
		c2.1,1.11,4.48,1.66,7.11,1.66c3.77,0,6.7-0.93,8.78-2.77s3.13-4.24,3.13-7.19c0-1.72-0.38-3.23-1.13-4.5
		c-0.77-1.29-1.9-2.34-3.43-3.17c-1.53-0.83-4.82-1.98-9.91-3.49c-4.5-1.33-7.71-2.68-9.63-4.04s-3.41-3.07-4.46-5.15
		c-1.07-2.1-1.59-4.46-1.59-7.08c0-4.72,1.51-8.58,4.58-11.61c3.05-2.99,7.16-4.48,12.35-4.48c3.55,0,6.66,0.71,9.34,2.1
		c2.66,1.41,4.72,3.43,6.22,6.06c1.45,2.64,2.24,5.73,2.36,9.28l-6.1,0.57c-0.32-3.79-1.45-6.62-3.41-8.46
		c-1.94-1.82-4.68-2.74-8.21-2.74c-3.59,0-6.34,0.81-8.21,2.42c-1.88,1.59-2.83,3.67-2.83,6.24c0,2.36,0.69,4.18,2.08,5.49
		c1.37,1.29,4.48,2.62,9.3,3.96c4.72,1.29,8.05,2.44,9.97,3.39c2.91,1.49,5.13,3.45,6.6,5.89c1.49,2.42,2.24,5.33,2.24,8.68
		c0,3.35-0.79,6.4-2.34,9.14c-1.57,2.74-3.71,4.84-6.4,6.28c-2.7,1.43-5.95,2.14-9.75,2.14c-5.93,0-10.64-1.78-14.15-5.33
		C1317.73,1375.96,1315.92,1371.14,1315.77,1365.06"/>
</g>
</svg>
