<?xml version="1.0" encoding="utf-8"?>
<!-- Generator: Adobe Illustrator 24.3.0, SVG Export Plug-In . SVG Version: 6.00 Build 0)  -->
<svg version="1.1" id="Calque_1" xmlns="http://www.w3.org/2000/svg" xmlns:xlink="http://www.w3.org/1999/xlink" x="0px" y="0px"
	 viewBox="0 0 2551.18 1700.79" style="enable-background:new 0 0 2551.18 1700.79;" xml:space="preserve">
<style type="text/css">
	.st0{fill:#0D4663;}
	.st1{fill:#0A3249;}
	.st2{fill:#EF8025;}
	.st3{clip-path:url(#SVGID_2_);fill:url(#SVGID_3_);}
	.st4{clip-path:url(#SVGID_5_);fill:url(#SVGID_6_);}
	.st5{clip-path:url(#SVGID_8_);fill:url(#SVGID_9_);}
	.st6{clip-path:url(#SVGID_11_);fill:url(#SVGID_12_);}
	.st7{clip-path:url(#SVGID_14_);fill:url(#SVGID_15_);}
	.st8{clip-path:url(#SVGID_17_);fill:url(#SVGID_18_);}
	.st9{clip-path:url(#SVGID_20_);fill:url(#SVGID_21_);}
	.st10{clip-path:url(#SVGID_23_);fill:url(#SVGID_24_);}
	.st11{clip-path:url(#SVGID_26_);fill:url(#SVGID_27_);}
	.st12{clip-path:url(#SVGID_29_);fill:url(#SVGID_30_);}
	.st13{clip-path:url(#SVGID_32_);fill:url(#SVGID_33_);}
	.st14{clip-path:url(#SVGID_35_);fill:url(#SVGID_36_);}
	.st15{clip-path:url(#SVGID_38_);fill:url(#SVGID_39_);}
	.st16{clip-path:url(#SVGID_41_);fill:url(#SVGID_42_);}
	.st17{clip-path:url(#SVGID_44_);fill:url(#SVGID_45_);}
	.st18{clip-path:url(#SVGID_47_);fill:url(#SVGID_48_);}
	.st19{clip-path:url(#SVGID_50_);fill:url(#SVGID_51_);}
	.st20{clip-path:url(#SVGID_53_);fill:url(#SVGID_54_);}
	.st21{clip-path:url(#SVGID_56_);fill:url(#SVGID_57_);}
	.st22{fill:#00007E;}
	.st23{clip-path:url(#SVGID_59_);fill:none;stroke:#907F81;stroke-width:5.6693;stroke-miterlimit:10;}
	.st24{fill:#907F81;}
	.st25{fill:#206B93;}
</style>
<g>
	<polygon class="st25" points="1063.84,892.4 1063.84,526.08 1074.43,526.08 1074.43,865.93 1236.41,643.6 1158.07,532.43 
		1168.66,526.08 1487.33,977.1 1476.75,982.4 1244.65,655.48 1063.84,907.23 	"/>
	<polygon class="st25" points="1122.6,409.61 1132.13,403.26 1417.99,803.47 1417.99,549.37 1428.58,548.31 1428.58,834.18 	"/>
	<polygon class="st25" points="799.37,1005.73 778.99,1079.31 769.66,1079.31 751.99,1015.37 734.27,1079.31 724.93,1079.31 
		704.62,1005.73 714.85,1005.73 729.56,1065.66 746.12,1005.73 757.82,1005.73 774.38,1065.66 789.08,1005.73 	"/>
	<path class="st25" d="M869.03,1079.31h-10.99l-8.52-22.38H818.7l-8.14,22.38h-10.29l28.26-73.57h10.49L869.03,1079.31z
		 M846.65,1049.2l-12.94-34.13l-12.35,34.13H846.65z"/>
	<polygon class="st25" points="936.79,1005.73 908.18,1079.31 898.14,1079.31 869.54,1005.73 879.92,1005.73 903.16,1068.82 
		926.39,1005.73 	"/>
	<polygon class="st25" points="1000.58,1079.31 945.72,1079.31 945.72,1005.74 998.87,1005.74 998.87,1014.47 955.45,1014.47 
		955.45,1036.95 996.06,1036.95 996.06,1045.69 955.45,1045.69 955.45,1070.58 1000.58,1070.58 	"/>
	<path class="st25" d="M1042.03,1080.57c-10.37,0-18.13-2.32-23.27-6.98c-5.14-4.64-7.83-10.61-8.1-17.91h9.39
		c0.5,5.49,2.78,9.54,6.85,12.17c4.07,2.64,8.97,3.95,14.73,3.95c5.45,0,9.85-1.13,13.18-3.36c3.33-2.25,4.99-5.29,4.99-9.13
		c0-4.06-1.72-6.99-5.17-8.84c-3.44-1.83-9.37-3.66-17.79-5.44c-8.42-1.8-14.45-4.27-18.12-7.46c-3.67-3.18-5.49-7.41-5.49-12.7
		c0-5.95,2.38-10.84,7.15-14.66c4.76-3.81,11.1-5.72,18.99-5.72c8.29,0,14.98,1.93,20.07,5.77c5.09,3.85,7.78,9.29,8.09,16.32h-9.5
		c-0.96-8.9-7.05-13.36-18.26-13.36c-5.42,0-9.62,1.02-12.59,3.06c-2.99,2.04-4.47,4.76-4.47,8.14c0,3.08,1.19,5.39,3.58,6.92
		c2.39,1.54,6.86,3.04,13.41,4.47c6.53,1.44,11.73,2.87,15.58,4.27c3.85,1.4,7.14,3.58,9.88,6.55c2.74,2.96,4.12,6.93,4.12,11.92
		c0,6.31-2.51,11.57-7.55,15.75C1056.7,1078.48,1050.13,1080.57,1042.03,1080.57"/>
	<path class="st25" d="M1170.56,1079.31h-10.99l-8.52-22.38h-30.82l-8.14,22.38h-10.29l28.26-73.57h10.49L1170.56,1079.31z
		 M1148.18,1049.2l-12.94-34.13l-12.35,34.13H1148.18z"/>
	<path class="st25" d="M1246.95,1078.31l-5.77,6.87l-12.14-9.59c-5.46,3.31-11.62,4.98-18.47,4.98c-10.35,0-18.81-3.5-25.4-10.47
		c-6.59-6.98-9.88-16.17-9.88-27.58c0-11.45,3.29-20.64,9.88-27.61c6.59-6.96,15.06-10.43,25.4-10.43c10.3,0,18.74,3.47,25.29,10.43
		c6.56,6.97,9.84,16.16,9.84,27.61c0,11.11-3.18,20.22-9.54,27.35L1246.95,1078.31z M1228.84,1064.1
		c4.52-5.35,6.78-12.54,6.78-21.58c0-9.37-2.34-16.66-7.03-21.88c-4.68-5.22-10.65-7.83-17.91-7.83c-7.4,0-13.47,2.61-18.19,7.83
		c-4.74,5.22-7.1,12.51-7.1,21.88c0,9.33,2.36,16.62,7.07,21.86c4.72,5.23,10.73,7.86,18.02,7.86c3.89,0,7.58-0.83,11.1-2.46
		l-7.33-5.77l5.78-6.89L1228.84,1064.1z"/>
	<path class="st25" d="M1287.51,1080.57c-8.54,0-14.91-1.65-19.15-4.97c-4.23-3.31-6.91-7.21-8.03-11.69
		c-1.12-4.48-1.69-9.69-1.69-15.62v-42.56h9.74v42.42c0,9.67,1.63,16.03,4.87,19.08c3.24,3.04,8,4.57,14.26,4.57
		c6.25,0,11.01-1.53,14.26-4.57c3.24-3.05,4.87-9.41,4.87-19.08v-42.42h9.79v42.56c0,8.9-1.07,15.46-3.19,19.68
		c-2.13,4.21-5.33,7.37-9.61,9.46C1299.33,1079.52,1293.97,1080.57,1287.51,1080.57"/>
	<path class="st25" d="M1393.3,1079.31h-10.99l-8.52-22.38h-30.82l-8.14,22.38h-10.29l28.26-73.57h10.49L1393.3,1079.31z
		 M1370.92,1049.2l-12.94-34.13l-12.35,34.13H1370.92z"/>
	<path class="st25" d="M1490.07,1079.31h-10.54l-6.92-19.62c-1.24-3.48-3.3-6.33-6.18-8.54c-2.88-2.21-6.19-3.31-9.93-3.31h-18.02
		v31.47h-9.74v-73.59h32.58c5.68,0,10.33,0.56,13.95,1.66c3.61,1.1,6.56,3.42,8.83,6.97c2.27,3.55,3.41,7.55,3.41,12
		c0,5.09-1.47,9.34-4.42,12.75c-2.94,3.41-6.97,5.63-12.09,6.68v0.19c5.12,1.64,9.02,6.07,11.69,13.31L1490.07,1079.31z
		 M1438.48,1039.11h21.74c6.05,0,10.44-0.96,13.18-2.87c2.72-1.91,4.09-5.2,4.09-9.88c0-8.37-5.26-12.54-15.76-12.54h-23.24V1039.11
		z"/>
	<polygon class="st25" points="1557.82,1079.31 1502.96,1079.31 1502.96,1005.74 1556.11,1005.74 1556.11,1014.47 1512.7,1014.47 
		1512.7,1036.95 1553.31,1036.95 1553.31,1045.69 1512.7,1045.69 1512.7,1070.58 1557.82,1070.58 	"/>
	<path class="st25" d="M1599.28,1080.57c-10.37,0-18.13-2.32-23.27-6.98c-5.14-4.64-7.83-10.61-8.1-17.91h9.39
		c0.5,5.49,2.78,9.54,6.85,12.17c4.07,2.64,8.97,3.95,14.73,3.95c5.45,0,9.85-1.13,13.18-3.36c3.33-2.25,4.99-5.29,4.99-9.13
		c0-4.06-1.72-6.99-5.17-8.84c-3.44-1.83-9.37-3.66-17.79-5.44c-8.42-1.8-14.45-4.27-18.12-7.46c-3.67-3.18-5.49-7.41-5.49-12.7
		c0-5.95,2.38-10.84,7.15-14.66c4.76-3.81,11.1-5.72,18.99-5.72c8.29,0,14.98,1.93,20.07,5.77c5.09,3.85,7.78,9.29,8.09,16.32h-9.5
		c-0.96-8.9-7.05-13.36-18.26-13.36c-5.42,0-9.62,1.02-12.59,3.06c-2.99,2.04-4.47,4.76-4.47,8.14c0,3.08,1.19,5.39,3.58,6.92
		c2.39,1.54,6.86,3.04,13.41,4.47c6.53,1.44,11.73,2.87,15.58,4.27c3.85,1.4,7.14,3.58,9.88,6.55c2.74,2.96,4.12,6.93,4.12,11.92
		c0,6.31-2.51,11.57-7.55,15.75C1613.95,1078.48,1607.38,1080.57,1599.28,1080.57"/>
	<path class="st25" d="M1671.95,1004.48c10.31,0,18.74,3.48,25.29,10.44c6.56,6.96,9.84,16.16,9.84,27.6
		c0,11.45-3.28,20.64-9.84,27.6c-6.56,6.97-14.98,10.44-25.29,10.44c-10.33,0-18.8-3.48-25.39-10.47
		c-6.59-6.97-9.88-16.16-9.88-27.58c0-11.44,3.29-20.64,9.88-27.6C1653.16,1007.96,1661.62,1004.48,1671.95,1004.48
		 M1671.86,1072.23c7.36,0,13.39-2.61,18.09-7.83c4.7-5.22,7.06-12.51,7.06-21.88c0-9.36-2.34-16.66-7.03-21.88
		c-4.69-5.22-10.66-7.83-17.91-7.83c-7.4,0-13.47,2.61-18.2,7.83c-4.74,5.22-7.1,12.52-7.1,21.88c0,9.34,2.37,16.62,7.08,21.86
		C1658.56,1069.61,1664.56,1072.23,1671.86,1072.23"/>
	<path class="st25" d="M1781.37,1079.31h-10.54l-6.92-19.62c-1.24-3.48-3.3-6.33-6.18-8.54c-2.88-2.21-6.19-3.31-9.93-3.31h-18.02
		v31.47h-9.74v-73.59h32.58c5.68,0,10.33,0.56,13.95,1.66c3.61,1.1,6.56,3.42,8.83,6.97c2.27,3.55,3.41,7.55,3.41,12
		c0,5.09-1.47,9.34-4.42,12.75c-2.94,3.41-6.97,5.63-12.09,6.68v0.19c5.12,1.64,9.02,6.07,11.69,13.31L1781.37,1079.31z
		 M1729.77,1039.11h21.74c6.05,0,10.44-0.96,13.18-2.87c2.72-1.91,4.08-5.2,4.08-9.88c0-8.37-5.25-12.54-15.75-12.54h-23.24V1039.11
		z"/>
	<polygon class="st25" points="1846.56,1014.47 1822.22,1014.47 1822.22,1079.31 1812.43,1079.31 1812.43,1014.47 1788.29,1014.47 
		1788.29,1005.74 1846.56,1005.74 	"/>
	<path class="st25" d="M1029.01,1183.78h-5.72l-4.43-11.66h-16.04l-4.24,11.66h-5.36l14.71-38.3h5.46L1029.01,1183.78z
		 M1017.37,1168.11l-6.74-17.77l-6.42,17.77H1017.37z"/>
	<path class="st25" d="M1068.78,1183.26l-3.01,3.57l-6.31-4.98c-2.84,1.72-6.05,2.59-9.62,2.59c-5.38,0-9.79-1.82-13.21-5.45
		c-3.44-3.63-5.15-8.42-5.15-14.35c0-5.95,1.71-10.75,5.15-14.36c3.42-3.62,7.83-5.44,13.21-5.44c5.37,0,9.75,1.82,13.16,5.44
		c3.41,3.62,5.12,8.42,5.12,14.36c0,5.78-1.65,10.53-4.97,14.23L1068.78,1183.26z M1059.35,1175.87c2.36-2.78,3.52-6.53,3.52-11.23
		c0-4.88-1.21-8.67-3.65-11.39c-2.44-2.72-5.55-4.07-9.33-4.07c-3.85,0-7.01,1.35-9.46,4.07c-2.46,2.72-3.7,6.51-3.7,11.39
		c0,4.86,1.23,8.65,3.68,11.38c2.47,2.72,5.59,4.08,9.39,4.08c2.02,0,3.95-0.43,5.77-1.28l-3.81-3l3-3.58L1059.35,1175.87z"/>
	<path class="st25" d="M1089.88,1184.43c-4.44,0-7.76-0.86-9.97-2.59c-2.2-1.72-3.59-3.75-4.18-6.08c-0.58-2.33-0.87-5.04-0.87-8.12
		v-22.15h5.06v22.06c0,5.04,0.85,8.34,2.54,9.93c1.69,1.58,4.16,2.38,7.42,2.38c3.25,0,5.73-0.8,7.42-2.38
		c1.69-1.59,2.54-4.89,2.54-9.93v-22.06h5.09v22.15c0,4.63-0.55,8.04-1.66,10.24c-1.1,2.2-2.77,3.84-4.99,4.93
		C1096.04,1183.89,1093.24,1184.43,1089.88,1184.43"/>
	<path class="st25" d="M1144.94,1183.78h-5.72l-4.43-11.66h-16.04l-4.24,11.66h-5.36l14.71-38.3h5.46L1144.94,1183.78z
		 M1133.29,1168.11l-6.74-17.77l-6.42,17.77H1133.29z"/>
	<path class="st25" d="M1149.18,1145.48h14.28c3.13,0,5.77,0.29,7.88,0.87c2.11,0.58,3.79,1.85,5.03,3.79
		c1.24,1.94,1.86,4.12,1.86,6.52c0,3.86-1.23,6.8-3.69,8.8c-2.45,2-6,3-10.65,3h-9.64v15.31h-5.06V1145.48z M1154.24,1163.93h9.69
		c3.25,0,5.57-0.61,6.96-1.83c1.38-1.21,2.08-2.97,2.08-5.27c0-1.53-0.38-2.89-1.14-4.08c-0.77-1.18-1.74-1.93-2.91-2.25
		c-1.18-0.3-2.87-0.46-5.09-0.46h-9.58V1163.93z"/>
	<path class="st25" d="M1216.3,1183.78h-5.72l-4.43-11.66h-16.04l-4.24,11.66h-5.35l14.71-38.3h5.46L1216.3,1183.78z
		 M1204.66,1168.11l-6.74-17.77l-6.42,17.77H1204.66z"/>
	<path class="st25" d="M1252.45,1183.78h-5.48l-3.61-10.21c-0.64-1.81-1.72-3.29-3.22-4.44c-1.49-1.14-3.22-1.72-5.17-1.72h-9.37
		v16.38h-5.06v-38.3h16.95c2.96,0,5.38,0.29,7.26,0.86c1.88,0.58,3.41,1.78,4.59,3.63c1.19,1.85,1.79,3.93,1.79,6.25
		c0,2.65-0.78,4.86-2.31,6.63c-1.53,1.77-3.63,2.94-6.29,3.47v0.11c2.66,0.85,4.69,3.16,6.08,6.92L1252.45,1183.78z
		 M1225.61,1162.86h11.31c3.16,0,5.44-0.5,6.86-1.49c1.42-0.98,2.12-2.71,2.12-5.14c0-4.36-2.73-6.53-8.2-6.53h-12.09V1162.86z"/>
	<path class="st25" d="M1275.21,1184.43c-5.42,0-9.74-1.79-12.97-5.34c-3.23-3.56-4.85-8.38-4.85-14.46
		c0-6.07,1.61-10.89,4.85-14.45c3.23-3.56,7.55-5.34,12.97-5.34c4.16,0,7.71,1.12,10.64,3.36c2.91,2.25,4.57,5.21,4.93,8.89h-5.22
		c-0.21-2.43-1.26-4.35-3.15-5.78c-1.89-1.42-4.27-2.14-7.15-2.14c-3.87,0-6.96,1.34-9.22,4.01c-2.26,2.67-3.4,6.5-3.4,11.45
		c0,4.95,1.13,8.77,3.38,11.45c2.25,2.67,5.29,4.02,9.14,4.02c2.99,0,5.42-0.73,7.26-2.2c1.85-1.46,2.89-3.55,3.13-6.27h5.22
		c-0.36,4.08-1.97,7.23-4.81,9.46C1283.13,1183.32,1279.54,1184.43,1275.21,1184.43"/>
	<path class="st25" d="M1340.69,1181.22l-3.81,3.22l-3.31-4.18c-3.04,2.78-6.82,4.18-11.39,4.18c-3.52,0-6.42-1.09-8.72-3.27
		c-2.28-2.17-3.42-4.81-3.42-7.92c0-2.37,0.73-4.43,2.19-6.22c1.47-1.77,3.69-3.51,6.69-5.2c-2.72-3.47-4.08-6.29-4.08-8.43
		c0-2.44,0.91-4.48,2.71-6.12c1.8-1.64,4.08-2.45,6.82-2.45c2.56,0,4.69,0.8,6.36,2.39c1.69,1.59,2.53,3.52,2.53,5.78
		c0,2.03-0.62,3.76-1.86,5.25c-1.24,1.47-3.12,2.94-5.63,4.4l7.7,9.58c0.75-1.91,1.18-4.07,1.29-6.47h5.09
		c-0.23,4.02-1.25,7.55-3.06,10.58L1340.69,1181.22z M1330.8,1176.72l-9.33-11.67c-2.21,1.3-3.83,2.54-4.83,3.69
		c-1.01,1.17-1.52,2.55-1.52,4.16c0,1.96,0.68,3.67,2.03,5.14c1.35,1.47,3.04,2.21,5.08,2.21
		C1325.75,1180.26,1328.6,1179.08,1330.8,1176.72 M1323.25,1159.54c1.8-0.97,3.11-1.94,3.95-2.91c0.84-0.96,1.25-2.14,1.25-3.51
		c0-1.32-0.42-2.39-1.29-3.21c-0.86-0.8-1.88-1.21-3.05-1.21c-1.25,0-2.31,0.39-3.16,1.17c-0.86,0.78-1.29,1.79-1.29,3.05
		c0,1.41,0.79,3.11,2.36,5.09L1323.25,1159.54z"/>
	<polygon class="st25" points="1397.9,1183.78 1393.09,1183.78 1393.09,1151.21 1382.17,1183.78 1377.63,1183.78 1366.72,1151.21 
		1366.72,1183.78 1361.91,1183.78 1361.91,1145.48 1369.51,1145.48 1379.88,1177.4 1390.3,1145.48 1397.9,1145.48 	"/>
	<path class="st25" d="M1423.05,1144.84c5.37,0,9.75,1.81,13.16,5.43c3.42,3.63,5.12,8.42,5.12,14.38c0,5.95-1.7,10.73-5.12,14.37
		c-3.41,3.62-7.8,5.43-13.16,5.43c-5.38,0-9.79-1.81-13.21-5.44c-3.44-3.63-5.15-8.42-5.15-14.35c0-5.96,1.71-10.75,5.15-14.38
		C1413.26,1146.64,1417.67,1144.84,1423.05,1144.84 M1423,1180.1c3.83,0,6.97-1.36,9.41-4.08c2.45-2.71,3.68-6.51,3.68-11.38
		c0-4.88-1.23-8.68-3.66-11.39c-2.44-2.72-5.55-4.08-9.33-4.08c-3.85,0-7.01,1.36-9.47,4.08c-2.47,2.71-3.7,6.51-3.7,11.39
		c0,4.86,1.24,8.65,3.69,11.37C1416.08,1178.74,1419.2,1180.1,1423,1180.1"/>
	<path class="st25" d="M1479.99,1183.78h-5.48l-3.61-10.21c-0.64-1.81-1.72-3.29-3.22-4.44c-1.49-1.14-3.22-1.72-5.17-1.72h-9.37
		v16.38h-5.06v-38.3h16.95c2.96,0,5.38,0.29,7.26,0.86c1.88,0.58,3.41,1.78,4.59,3.63c1.19,1.85,1.79,3.93,1.79,6.25
		c0,2.65-0.77,4.86-2.31,6.63c-1.53,1.77-3.63,2.94-6.29,3.47v0.11c2.66,0.85,4.69,3.16,6.08,6.92L1479.99,1183.78z
		 M1453.14,1162.86h11.31c3.16,0,5.44-0.5,6.86-1.49c1.42-0.98,2.13-2.71,2.13-5.14c0-4.36-2.73-6.53-8.2-6.53h-12.09V1162.86z"/>
	<polygon class="st25" points="1515.26,1183.78 1486.71,1183.78 1486.71,1145.48 1514.37,1145.48 1514.37,1150.03 1491.78,1150.03 
		1491.78,1161.73 1512.9,1161.73 1512.9,1166.28 1491.78,1166.28 1491.78,1179.24 1515.26,1179.24 	"/>
	<rect x="1522.87" y="1178.42" class="st25" width="5.36" height="5.36"/>
	<rect x="1537.73" y="1178.42" class="st25" width="5.36" height="5.36"/>
	<rect x="1552.59" y="1178.42" class="st25" width="5.36" height="5.36"/>
</g>
</svg>
