<?xml version="1.0" encoding="utf-8"?>
<!-- Generator: Adobe Illustrator 24.3.0, SVG Export Plug-In . SVG Version: 6.00 Build 0)  -->
<svg version="1.1" id="Calque_1" xmlns="http://www.w3.org/2000/svg" xmlns:xlink="http://www.w3.org/1999/xlink" x="0px" y="0px"
	 viewBox="0 0 2551.18 1700.79" style="enable-background:new 0 0 2551.18 1700.79;" xml:space="preserve">
<style type="text/css">
	.st0{fill:#0D4663;}
	.st1{fill:#0A3249;}
	.st2{fill:#EF8025;}
	.st3{clip-path:url(#SVGID_2_);fill:url(#SVGID_3_);}
	.st4{clip-path:url(#SVGID_5_);fill:url(#SVGID_6_);}
	.st5{clip-path:url(#SVGID_8_);fill:url(#SVGID_9_);}
	.st6{clip-path:url(#SVGID_11_);fill:url(#SVGID_12_);}
	.st7{clip-path:url(#SVGID_14_);fill:url(#SVGID_15_);}
	.st8{clip-path:url(#SVGID_17_);fill:url(#SVGID_18_);}
	.st9{clip-path:url(#SVGID_20_);fill:url(#SVGID_21_);}
	.st10{clip-path:url(#SVGID_23_);fill:url(#SVGID_24_);}
	.st11{clip-path:url(#SVGID_26_);fill:url(#SVGID_27_);}
	.st12{clip-path:url(#SVGID_29_);fill:url(#SVGID_30_);}
	.st13{clip-path:url(#SVGID_32_);fill:url(#SVGID_33_);}
	.st14{clip-path:url(#SVGID_35_);fill:url(#SVGID_36_);}
	.st15{clip-path:url(#SVGID_38_);fill:url(#SVGID_39_);}
	.st16{clip-path:url(#SVGID_41_);fill:url(#SVGID_42_);}
	.st17{clip-path:url(#SVGID_44_);fill:url(#SVGID_45_);}
	.st18{clip-path:url(#SVGID_47_);fill:url(#SVGID_48_);}
	.st19{clip-path:url(#SVGID_50_);fill:url(#SVGID_51_);}
	.st20{clip-path:url(#SVGID_53_);fill:url(#SVGID_54_);}
	.st21{clip-path:url(#SVGID_56_);fill:url(#SVGID_57_);}
	.st22{fill:#00007E;}
	.st23{clip-path:url(#SVGID_59_);fill:none;stroke:#907F81;stroke-width:5.6693;stroke-miterlimit:10;}
	.st24{fill:#907F81;}
	.st25{fill:#206B93;}
</style>
<g>
	<g>
		<path class="st2" d="M1859.78,819.97h-72.33c0.5-0.58,0.81-1.32,0.81-2.15c0-5.06-0.46-10.01-1.3-14.84l71.78-12.66
			c1.81-0.32,3.02-2.05,2.7-3.86c-0.32-1.81-2.05-3.02-3.86-2.7l-72,12.7c-1.83-7.17-4.57-13.98-8.07-20.32l82.31-47.53
			c1.59-0.92,2.14-2.95,1.22-4.54c-0.92-1.59-2.96-2.14-4.55-1.22l-82.43,47.59c-4.34-6.58-9.54-12.53-15.46-17.7l55.87-66.59
			c1.19-1.41,1-3.51-0.41-4.69c-1.41-1.18-3.51-1-4.69,0.41l-55.94,66.67c-6.27-4.69-13.21-8.52-20.63-11.38l34.03-93.51
			c0.63-1.72-0.26-3.64-1.99-4.26c-1.73-0.63-3.64,0.26-4.27,1.99l-34.08,93.63c-7.02-2.09-14.41-3.31-22.05-3.53V588.72
			c0-1.84-1.49-3.33-3.33-3.33c-1.84,0-3.32,1.49-3.32,3.33v142.82c-7.6,0.35-14.95,1.69-21.91,3.89l-34.22-94.03
			c-0.63-1.72-2.54-2.62-4.27-1.99c-1.73,0.63-2.62,2.54-1.99,4.26l34.21,94.01c-7.28,2.94-14.09,6.84-20.23,11.56l-56.52-67.36
			c-1.18-1.41-3.28-1.59-4.69-0.41c-1.41,1.18-1.6,3.28-0.41,4.69l56.5,67.33c-5.75,5.15-10.8,11.07-15,17.58l-83.51-48.21
			c-1.59-0.92-3.63-0.38-4.54,1.22c-0.92,1.59-0.38,3.63,1.22,4.54l83.42,48.17c-3.38,6.23-6,12.91-7.77,19.93l-73.41-12.95
			c-1.8-0.32-3.54,0.89-3.86,2.7c-0.32,1.81,0.89,3.54,2.7,3.86l73.21,12.91c-0.81,4.75-1.25,9.61-1.25,14.58
			c0,0.83,0.31,1.57,0.8,2.15h-72.32c-1.84,0-3.33,1.49-3.33,3.33s1.49,3.33,3.33,3.33h315.82c1.84,0,3.33-1.49,3.33-3.33
			S1861.62,819.97,1859.78,819.97 M1622.14,817.82c0-43.96,35.77-79.73,79.73-79.73c37.6,0,69.19,26.18,77.55,61.26
			c-0.16,0.51-0.23,1.05-0.13,1.61c0.11,0.66,0.42,1.23,0.85,1.68c0.95,4.92,1.47,9.99,1.47,15.18c0,0.83,0.31,1.57,0.81,2.15
			h-161.08C1621.83,819.39,1622.14,818.65,1622.14,817.82"/>
		<path class="st2" d="M1621.33,821.93h161.08c0.03-5.71-0.33-37.04-24.12-61.94c-4.35-4.55-24.66-24.77-56.42-24.75
			c-34.35,0.02-55.55,23.71-59.2,27.93C1621.99,787.11,1621.32,815.29,1621.33,821.93"/>
	</g>
	<g>
		<defs>
			<path id="SVGID_1_" d="M1385.53,666.55l-141.5,362.8c-3.45,8.85-11.19,10.11-14.35,10.24c-3,0.05-10.24-0.43-14.51-7.87
				l-68.72-212.98l-1.21-2.99c-10.42-21.38-31.67-34.65-55.45-34.65c-23.78,0-45.03,13.28-55.45,34.65l-0.71,1.45l-69.21,214.52
				c-4.28,7.44-11.54,7.92-14.52,7.87c-3.17-0.14-10.89-1.39-14.34-10.24L831.1,757.29c-9.69-24.85-33.15-40.32-59.81-39.23
				c-26.65,1-48.89,18.14-56.67,43.64l-41.04,134.52c-2.08,6.82-8.27,11.41-15.4,11.41h-91.95c-12.59,0-22.8,10.21-22.8,22.79
				c0,12.59,10.2,22.8,22.8,22.8h91.95c27.32,0,51.04-17.55,59.01-43.69l41.04-134.52c3.1-10.17,12.11-11.29,14.79-11.39
				c2.69-0.1,11.75,0.33,15.61,10.24l104.46,272.05c9.04,23.18,30.09,38.21,54.95,39.23c24.89,0.95,47.08-12.24,57.98-34.6
				l0.71-1.46l69.21-214.51c4.09-7.09,10.98-7.89,13.86-7.89c2.88,0,9.77,0.8,13.86,7.89l68.72,212.97l1.21,3
				c10.51,21.55,31.54,34.65,55.31,34.65c0.88,0,1.77-0.02,2.67-0.05c24.85-1.02,45.91-16.05,54.95-39.23l141.51-362.8
				c3.86-9.91,12.89-10.37,15.61-10.24c2.69,0.1,11.69,1.22,14.8,11.39l41.03,134.52c7.97,26.14,31.68,43.69,59.01,43.69h288.92
				c12.59,0,22.79-10.21,22.79-22.8c0-12.59-10.2-22.8-22.79-22.8h-288.92c-7.14,0-13.32-4.58-15.41-11.4l-41.03-134.52
				c-7.79-25.5-30.03-42.63-56.68-43.64c-0.81-0.03-1.62-0.05-2.43-0.05C1417.37,627.27,1394.92,642.47,1385.53,666.55"/>
		</defs>
		<clipPath id="SVGID_2_">
			<use xlink:href="#SVGID_1_"  style="overflow:visible;"/>
		</clipPath>
		
			<linearGradient id="SVGID_3_" gradientUnits="userSpaceOnUse" x1="-4052.0657" y1="966.9907" x2="-4048.4124" y2="966.9907" gradientTransform="matrix(363.1628 0 0 -363.1628 1472102.875 352031.7188)">
			<stop  offset="0" style="stop-color:#E3322E"/>
			<stop  offset="0.0238" style="stop-color:#D63B3B"/>
			<stop  offset="0.1092" style="stop-color:#AD5867"/>
			<stop  offset="0.1989" style="stop-color:#8A718C"/>
			<stop  offset="0.2919" style="stop-color:#6D85AA"/>
			<stop  offset="0.3893" style="stop-color:#5794C1"/>
			<stop  offset="0.4932" style="stop-color:#479FD2"/>
			<stop  offset="0.6077" style="stop-color:#3EA6DC"/>
			<stop  offset="0.7542" style="stop-color:#3BA8DF"/>
			<stop  offset="0.7579" style="stop-color:#3BA8DF"/>
			<stop  offset="0.8659" style="stop-color:#3FA7DE"/>
			<stop  offset="0.9106" style="stop-color:#3CA8DF"/>
			<stop  offset="0.9114" style="stop-color:#3CA8DF"/>
			<stop  offset="0.9714" style="stop-color:#3EA8DF"/>
			<stop  offset="1" style="stop-color:#3EA8DF"/>
		</linearGradient>
		<rect x="543.42" y="627.27" class="st3" width="1326.75" height="458.82"/>
	</g>
	<g>
		<defs>
			<path id="SVGID_4_" d="M1389.55,917.41l28.58,87.47h-57.16L1389.55,917.41z M1371.74,883.79l-65.06,196.05h30.16l15.37-46.68
				h75.4l15.65,46.68h37.78l-65.79-196.05H1371.74z"/>
		</defs>
		<clipPath id="SVGID_5_">
			<use xlink:href="#SVGID_4_"  style="overflow:visible;"/>
		</clipPath>
		
			<linearGradient id="SVGID_6_" gradientUnits="userSpaceOnUse" x1="-3956.8406" y1="964.8179" x2="-3953.1873" y2="964.8179" gradientTransform="matrix(47.728 0 0 -47.728 190158.9531 47030.6914)">
			<stop  offset="0" style="stop-color:#E3322E"/>
			<stop  offset="0.0238" style="stop-color:#D63B3B"/>
			<stop  offset="0.1092" style="stop-color:#AD5867"/>
			<stop  offset="0.1989" style="stop-color:#8A718C"/>
			<stop  offset="0.2919" style="stop-color:#6D85AA"/>
			<stop  offset="0.3893" style="stop-color:#5794C1"/>
			<stop  offset="0.4932" style="stop-color:#479FD2"/>
			<stop  offset="0.6077" style="stop-color:#3EA6DC"/>
			<stop  offset="0.7542" style="stop-color:#3BA8DF"/>
			<stop  offset="0.7579" style="stop-color:#3BA8DF"/>
			<stop  offset="0.8659" style="stop-color:#3FA7DE"/>
			<stop  offset="0.9106" style="stop-color:#3CA8DF"/>
			<stop  offset="0.9114" style="stop-color:#3CA8DF"/>
			<stop  offset="0.9714" style="stop-color:#3EA8DF"/>
			<stop  offset="1" style="stop-color:#3EA8DF"/>
		</linearGradient>
		<rect x="1306.68" y="883.79" class="st4" width="174.36" height="196.05"/>
	</g>
	<g>
		<defs>
			<polygon id="SVGID_7_" points="1600.68,883.79 1554.72,1034.03 1509.77,883.79 1472.43,883.79 1532.89,1079.85 1568.8,1079.85 
				1630.12,883.79 			"/>
		</defs>
		<clipPath id="SVGID_8_">
			<use xlink:href="#SVGID_7_"  style="overflow:visible;"/>
		</clipPath>
		
			<linearGradient id="SVGID_9_" gradientUnits="userSpaceOnUse" x1="-3942.6531" y1="964.584" x2="-3939" y2="964.584" gradientTransform="matrix(43.1668 0 0 -43.1668 171664.25 42619.8477)">
			<stop  offset="0" style="stop-color:#3BA8DF"/>
			<stop  offset="0.1536" style="stop-color:#3BA8DF"/>
			<stop  offset="0.1608" style="stop-color:#3BA8DF"/>
			<stop  offset="0.3687" style="stop-color:#3FA7DE"/>
			<stop  offset="0.4358" style="stop-color:#3CA8DF"/>
			<stop  offset="0.438" style="stop-color:#3CA8DF"/>
			<stop  offset="0.6089" style="stop-color:#3EA8DF"/>
			<stop  offset="1" style="stop-color:#E3322E"/>
		</linearGradient>
		<rect x="1472.43" y="883.79" class="st5" width="157.7" height="196.05"/>
	</g>
	<g>
		<defs>
			<polygon id="SVGID_10_" points="1652.39,886.76 1652.39,1082.82 1779.79,1082.82 1779.79,1052.37 1687.72,1052.37 1687.72,997.5 
				1760.68,997.5 1760.68,969.07 1687.72,969.07 1687.72,915.93 1778.49,915.93 1778.49,886.76 			"/>
		</defs>
		<clipPath id="SVGID_11_">
			<use xlink:href="#SVGID_10_"  style="overflow:visible;"/>
		</clipPath>
		
			<linearGradient id="SVGID_12_" gradientUnits="userSpaceOnUse" x1="-3909.8704" y1="963.9399" x2="-3906.217" y2="963.9399" gradientTransform="matrix(34.872 0 0 -34.872 137997.2188 34599.2578)">
			<stop  offset="0" style="stop-color:#3BA8DF"/>
			<stop  offset="0.1536" style="stop-color:#3BA8DF"/>
			<stop  offset="0.1608" style="stop-color:#3BA8DF"/>
			<stop  offset="0.3687" style="stop-color:#3FA7DE"/>
			<stop  offset="0.4358" style="stop-color:#3CA8DF"/>
			<stop  offset="0.438" style="stop-color:#3CA8DF"/>
			<stop  offset="0.6089" style="stop-color:#3EA8DF"/>
			<stop  offset="1" style="stop-color:#E3322E"/>
		</linearGradient>
		<rect x="1652.39" y="886.76" class="st6" width="127.4" height="196.05"/>
	</g>
	<g>
		<defs>
			<path id="SVGID_13_" d="M682.77,1027.09l-0.77,2.86l-0.31,2.18l6.33,1.65c0.5-0.87,0.92-2.03,1.26-3.48l0.7-2.9l0.63-3.26
				c-0.23-0.64-0.95-1.08-2.14-1.29c-1.06-0.3-2.57-0.51-4.54-0.61L682.77,1027.09z M675.34,988.06c0-0.35-0.01-0.8-0.05-1.37
				c-0.03-0.57-0.13-1.08-0.3-1.54c-0.2-0.57-0.5-1.09-0.88-1.55c-0.62-0.64-1.22-1.32-1.83-2.05c-0.18-0.28-0.44-0.64-0.77-1.08
				c0.89-1.83,2.18-3.79,3.87-5.9c2.26-2.79,5.07-5.59,8.45-8.4l5.84-2.04l-1,3.65c-0.45,1.28-0.98,2.54-1.61,3.77
				c-0.63,1.24-1.25,2.38-1.87,3.42c-0.95,1.63-2.46,3.85-4.5,6.65l-5.44,7.45L675.34,988.06z M679.75,961.5
				c-5.75,5.64-8.95,9.07-9.63,10.31c-0.1,0.2-0.17,0.36-0.22,0.46c-0.26,0.61-0.43,1.1-0.5,1.48l-0.61,5.11
				c-0.31,2.61-0.37,4.82-0.18,6.65l0.33,2.01c0.19,0.53,0.42,1.02,0.69,1.46c0.27,0.44,0.62,0.91,1.05,1.4
				c1.05,1,1.68,1.78,1.88,2.35c-0.73,0.95-1.3,1.69-1.71,2.23c-1.42,1.89-2.4,3.23-2.93,4.02c-1.22,2.33-2.44,4.67-3.67,7
				c-2.35,4.33-4.08,7.81-5.2,10.44c-1.26,3.08-2.44,6.75-3.57,11.03c-0.43,1.65-1.01,3.88-1.72,6.68
				c-0.77,3.59-1.1,7.21-0.98,10.86c-0.02,1.85,0.09,3.4,0.32,4.65c0.24,1.25,0.66,2.73,1.28,4.44c0.57,1.6,1.21,3.01,1.9,4.21
				c0.69,1.21,1.59,2.39,2.69,3.54c1.55,1.68,3.24,3.01,5.05,3.98c1.59,0.85,3.62,1.63,6.06,2.33c1.53,0.43,3.15,0.69,4.86,0.76
				c0.27,0.03,1.93,0.05,4.99,0.07c1.72,0.02,3.3,0,4.71-0.08c1.41-0.08,3.08-0.22,5.01-0.42c1.93-0.2,3.41-0.38,4.45-0.54
				c1.04-0.16,2.71-0.52,5.03-1.07s4.71-1.28,7.18-2.17l1.25-0.45c0.8-0.28,1.53-0.57,2.2-0.86c0.67-0.28,1.37-0.6,2.11-0.95
				c1.18-0.42,2.33-0.94,3.45-1.53c1.11-0.6,2.26-1.3,3.43-2.11l2.33-1.74l0.33-0.51l-0.44-0.16c-0.7,0.46-1.4,0.88-2.09,1.27
				c-0.7,0.38-1.63,0.84-2.79,1.39c-1.15,0.55-2.35,1.04-3.56,1.48l-1.42,0.52l-5.14,1.66l-4.95,1.28
				c-2.03,0.47-3.91,0.88-5.65,1.22c-1.74,0.35-3.52,0.59-5.32,0.73c-3,0.26-6.01,0.5-9.03,0.71c-3.02,0.2-5.65,0.07-7.89-0.42
				c-2.66-0.59-5.24-1.76-7.72-3.53c-2.77-1.97-4.58-3.47-5.43-4.49c-0.85-1.03-1.53-2.27-2.05-3.71c-0.22-0.61-0.36-1.06-0.43-1.36
				c-0.07-0.3-0.19-1-0.37-2.09c-0.34-2.25-0.35-4.41-0.03-6.51c0.43-2.13,0.88-4.29,1.34-6.48c0.54-2.68,1.18-5.13,1.93-7.34
				c0.64-1.9,1.5-4,2.56-6.31c1.07-2.29,2.14-4.61,3.24-6.93c1.7-3.62,3.57-7.16,5.6-10.59c1.86-3.16,3.79-6.16,5.79-8.98
				c1.26-1.75,3.53-4.82,6.8-9.22c1.71-2.42,3.17-4.93,4.38-7.51c1.55-3.32,2.74-6.54,3.55-9.67c0.22-0.81,0.33-3.24,0.34-7.28
				s-0.07-6.94-0.23-8.69c-0.14-0.38-0.33-0.65-0.56-0.83c-0.23-0.17-0.45-0.33-0.65-0.47c-0.2-0.15-0.46-0.26-0.77-0.34
				c-0.31-0.08-0.65-0.18-1.04-0.3C688.58,953.57,685.36,956.21,679.75,961.5"/>
		</defs>
		<clipPath id="SVGID_14_">
			<use xlink:href="#SVGID_13_"  style="overflow:visible;"/>
		</clipPath>
		
			<linearGradient id="SVGID_15_" gradientUnits="userSpaceOnUse" x1="-3835.375" y1="876.6201" x2="-3831.7217" y2="876.6201" gradientTransform="matrix(17.8198 -6.4242 -6.4242 -17.8198 74621.5156 -7991.3145)">
			<stop  offset="0" style="stop-color:#E3322E"/>
			<stop  offset="0.0238" style="stop-color:#D63B3B"/>
			<stop  offset="0.1092" style="stop-color:#AD5867"/>
			<stop  offset="0.1989" style="stop-color:#8A718C"/>
			<stop  offset="0.2919" style="stop-color:#6D85AA"/>
			<stop  offset="0.3893" style="stop-color:#5794C1"/>
			<stop  offset="0.4932" style="stop-color:#479FD2"/>
			<stop  offset="0.6077" style="stop-color:#3EA6DC"/>
			<stop  offset="0.7542" style="stop-color:#3BA8DF"/>
			<stop  offset="0.7579" style="stop-color:#3BA8DF"/>
			<stop  offset="0.8659" style="stop-color:#3FA7DE"/>
			<stop  offset="0.9106" style="stop-color:#3CA8DF"/>
			<stop  offset="0.9114" style="stop-color:#3CA8DF"/>
			<stop  offset="0.9714" style="stop-color:#3EA8DF"/>
			<stop  offset="1" style="stop-color:#3EA8DF"/>
		</linearGradient>
		<polygon class="st7" points="615.84,966.84 713.52,931.63 758.26,1055.73 660.58,1090.94 		"/>
	</g>
	<g>
		<defs>
			<path id="SVGID_16_" d="M699.54,954.17c0.45,2.81,1.07,5.66,1.86,8.56l0.9,3.74c0.19,0.88,0.4,1.71,0.65,2.51
				c0.24,0.79,0.49,1.53,0.73,2.21l2.81,8.34l1.83,4.69l1.62,3.61c1.17,2.07,2.06,3,2.67,2.78c0.34-0.25,0.53-0.62,0.57-1.11
				c-0.05-0.84-0.25-1.76-0.61-2.75l-1.18-3.64l-1.22-4.46l-2.22-9.78c1.4,1.26,2.74,2.56,4.01,3.9l3.95,4.26
				c0.97,1.03,1.62,1.73,1.93,2.11c0.31,0.38,0.88,1.13,1.72,2.25l3.2,4.2c0.66,0.88,1.13,1.51,1.41,1.91
				c0.27,0.39,0.73,1.11,1.35,2.12l2.48,3.81l0.22,0.63l0.19,0.52l0.23,0.63c1.33,3.69,1.49,7.91,0.5,12.65
				c-0.89,3.85-2.32,8.04-4.3,12.58c-2.74,6.23-4.27,9.98-4.58,11.25l-0.36,0.97l-0.13,0.89l-0.13,1.08
				c0.15,0.29,0.39,0.38,0.73,0.25l1.21-0.76l0.94-0.79c5.52-4.61,9.21-8.8,11.07-12.57c2.02-4.04,2.8-8.45,2.33-13.22
				c-0.31-2.29-0.81-4.75-1.49-7.36c-0.69-2.62-1.67-5.71-2.96-9.29c-2.41-6.69-6.32-13.76-11.7-21.19
				c-5.89-8.37-12.96-16.11-21.21-23.25C698.77,948.8,699.09,951.37,699.54,954.17"/>
		</defs>
		<clipPath id="SVGID_17_">
			<use xlink:href="#SVGID_16_"  style="overflow:visible;"/>
		</clipPath>
		
			<linearGradient id="SVGID_18_" gradientUnits="userSpaceOnUse" x1="-3446.3682" y1="726.7564" x2="-3442.7148" y2="726.7564" gradientTransform="matrix(6.6844 -2.4098 -2.4098 -6.6844 25493.4863 -2451.9548)">
			<stop  offset="0" style="stop-color:#E3322E"/>
			<stop  offset="0.0238" style="stop-color:#D63B3B"/>
			<stop  offset="0.1092" style="stop-color:#AD5867"/>
			<stop  offset="0.1989" style="stop-color:#8A718C"/>
			<stop  offset="0.2919" style="stop-color:#6D85AA"/>
			<stop  offset="0.3893" style="stop-color:#5794C1"/>
			<stop  offset="0.4932" style="stop-color:#479FD2"/>
			<stop  offset="0.6077" style="stop-color:#3EA6DC"/>
			<stop  offset="0.7542" style="stop-color:#3BA8DF"/>
			<stop  offset="0.7579" style="stop-color:#3BA8DF"/>
			<stop  offset="0.8659" style="stop-color:#3FA7DE"/>
			<stop  offset="0.9106" style="stop-color:#3CA8DF"/>
			<stop  offset="0.9114" style="stop-color:#3CA8DF"/>
			<stop  offset="0.9714" style="stop-color:#3EA8DF"/>
			<stop  offset="1" style="stop-color:#3EA8DF"/>
		</linearGradient>
		<polygon class="st8" points="670.32,956.64 732.05,934.39 764.65,1024.81 702.92,1047.07 		"/>
	</g>
	<g>
		<defs>
			<path id="SVGID_19_" d="M787.47,986.34l-4.2,5.34l-5.08,5.21c-0.28-0.76-0.7-1.45-1.26-2.06c-0.56-0.7-1.28-1.28-2.17-1.73
				c-1.19-0.69-2.28-1.08-3.27-1.18c-0.98-0.1-2.02,0.05-3.12,0.45l-0.61,0.29c-1.56,0.56-2.66,2.76-3.29,6.61
				c-0.52,3.11-0.64,6.2-0.39,9.29c0.13,1.2,0.33,2.16,0.59,2.88c0.84,1.16,1.74,1.78,2.67,1.87c0.74,0.03,1.93-0.24,3.57-0.83
				c0.42-0.15,0.83-0.34,1.22-0.57c0.39-0.23,0.89-0.51,1.5-0.86l3.47-2.35l0.38,2.31l0.03,1.34l-0.11,0.94
				c-0.62,1.99-1.27,3.9-1.95,5.76c-0.68,1.86-1.37,3.56-2.06,5.1c-1.38,3.21-3.01,6.2-4.89,8.98c-3.64,5.74-8.57,10.87-14.76,15.38
				c-2.56,1.95-4.62,3.34-6.17,4.15c-1.45,0.87-3.68,1.84-6.68,2.93c-0.53,0.19-1.12,0.36-1.75,0.5c-0.64,0.14-1.36,0.3-2.16,0.46
				c-1.63,0.24-2.83,0.44-3.59,0.58s-1.34,0.29-1.72,0.42l-0.33,0.51c0.12,0.34,0.3,0.47,0.53,0.39c3.31,0.14,6.84-0.15,10.59-0.85
				c1.07-0.13,2.07-0.28,2.99-0.47c0.92-0.18,1.74-0.41,2.47-0.66c0.36-0.07,0.96-0.19,1.82-0.33c0.91-0.33,1.84-0.66,2.79-1
				l0.63-0.23l4.42-1.86l3.31-1.71c2.57-1.57,4.76-3.14,6.57-4.69c2.36-2.28,4.71-5.88,7.06-10.82c2.91-6,4.67-11.85,5.28-17.54
				l0.63-7.01c0.09-0.68,0.14-1.41,0.12-2.18c-0.02-0.77-0.11-1.72-0.27-2.88l2.43-2.36l3.42-3.56c2.58-2.87,4.18-4.8,4.81-5.81
				l-1-11.91C789.41,983.56,788.6,984.8,787.47,986.34"/>
		</defs>
		<clipPath id="SVGID_20_">
			<use xlink:href="#SVGID_19_"  style="overflow:visible;"/>
		</clipPath>
		
			<linearGradient id="SVGID_21_" gradientUnits="userSpaceOnUse" x1="-3865.7791" y1="888.4147" x2="-3862.1257" y2="888.4147" gradientTransform="matrix(20.7871 -7.4939 -7.4939 -20.7871 87738.9219 -9467.8682)">
			<stop  offset="0" style="stop-color:#E3322E"/>
			<stop  offset="0.0238" style="stop-color:#D63B3B"/>
			<stop  offset="0.1092" style="stop-color:#AD5867"/>
			<stop  offset="0.1989" style="stop-color:#8A718C"/>
			<stop  offset="0.2919" style="stop-color:#6D85AA"/>
			<stop  offset="0.3893" style="stop-color:#5794C1"/>
			<stop  offset="0.4932" style="stop-color:#479FD2"/>
			<stop  offset="0.6077" style="stop-color:#3EA6DC"/>
			<stop  offset="0.7542" style="stop-color:#3BA8DF"/>
			<stop  offset="0.7579" style="stop-color:#3BA8DF"/>
			<stop  offset="0.8659" style="stop-color:#3FA7DE"/>
			<stop  offset="0.9106" style="stop-color:#3CA8DF"/>
			<stop  offset="0.9114" style="stop-color:#3CA8DF"/>
			<stop  offset="0.9714" style="stop-color:#3EA8DF"/>
			<stop  offset="1" style="stop-color:#3EA8DF"/>
		</linearGradient>
		<polygon class="st9" points="707.08,991.34 784.08,963.58 815.19,1049.86 738.18,1077.62 		"/>
	</g>
	<g>
		<defs>
			<path id="SVGID_22_" d="M790.07,964.93c-0.16,1.47-0.16,3.11-0.03,4.91l1.42,0.71l0.14,0.4c-0.28,0.54-0.56,1.37-0.84,2.5
				l-0.64,2.16l-0.3,1.66c-0.36,1.63-0.76,2.96-1.21,3.99l-0.82,1.84l-0.74,1.36l0.96,11.79l1.28-1.82l1-2.04
				c0.68-1.57,1.24-3.28,1.7-5.13l1.56-6.05l0.55-1.87l0.72-1.94c0.72-1.94,1.53-3.37,2.44-4.3c0.91-0.93,2.05-1.64,3.42-2.14
				l2.48-0.64l2.71-0.53l0.46-3.01c0.62-1.73,0.86-3.34,0.71-4.83l-0.36-2.07c-1.43-0.39-3.15-0.46-5.17-0.2l-4.34,0.47l-3.5-0.23
				l-2.5-0.51C790.5,961.83,790.13,963.66,790.07,964.93"/>
		</defs>
		<clipPath id="SVGID_23_">
			<use xlink:href="#SVGID_22_"  style="overflow:visible;"/>
		</clipPath>
		
			<linearGradient id="SVGID_24_" gradientUnits="userSpaceOnUse" x1="-3521.0327" y1="757.1217" x2="-3517.3794" y2="757.1217" gradientTransform="matrix(7.6995 -2.7757 -2.7757 -7.6995 29994.9961 -2961.1238)">
			<stop  offset="0" style="stop-color:#E3322E"/>
			<stop  offset="0.0238" style="stop-color:#D63B3B"/>
			<stop  offset="0.1092" style="stop-color:#AD5867"/>
			<stop  offset="0.1989" style="stop-color:#8A718C"/>
			<stop  offset="0.2919" style="stop-color:#6D85AA"/>
			<stop  offset="0.3893" style="stop-color:#5794C1"/>
			<stop  offset="0.4932" style="stop-color:#479FD2"/>
			<stop  offset="0.6077" style="stop-color:#3EA6DC"/>
			<stop  offset="0.7542" style="stop-color:#3BA8DF"/>
			<stop  offset="0.7579" style="stop-color:#3BA8DF"/>
			<stop  offset="0.8659" style="stop-color:#3FA7DE"/>
			<stop  offset="0.9106" style="stop-color:#3CA8DF"/>
			<stop  offset="0.9114" style="stop-color:#3CA8DF"/>
			<stop  offset="0.9714" style="stop-color:#3EA8DF"/>
			<stop  offset="1" style="stop-color:#3EA8DF"/>
		</linearGradient>
		<polygon class="st10" points="775.31,963.67 804.89,953 818.96,992.02 789.38,1002.68 		"/>
	</g>
	<g>
		<defs>
			<path id="SVGID_25_" d="M814.91,912.58c0.45,2.81,1.07,5.66,1.86,8.55l0.9,3.74c0.19,0.88,0.4,1.72,0.65,2.51
				c0.24,0.79,0.49,1.53,0.73,2.22l2.81,8.34l1.82,4.69l1.62,3.61c1.18,2.07,2.07,3,2.68,2.78c0.34-0.25,0.53-0.62,0.57-1.11
				c-0.04-0.84-0.24-1.76-0.6-2.75l-1.19-3.64l-1.21-4.46l-2.22-9.78c1.4,1.26,2.74,2.56,4.01,3.91l3.95,4.26
				c0.98,1.02,1.62,1.73,1.93,2.11s0.89,1.13,1.72,2.25l3.2,4.2c0.66,0.88,1.13,1.52,1.41,1.91c0.27,0.39,0.72,1.1,1.35,2.12
				l2.48,3.81l0.22,0.63l0.19,0.52l0.23,0.63c1.33,3.69,1.49,7.91,0.5,12.65c-0.89,3.85-2.33,8.04-4.3,12.58
				c-2.74,6.23-4.27,9.98-4.58,11.26l-0.36,0.97l-0.13,0.89l-0.13,1.07c0.15,0.29,0.39,0.38,0.73,0.25l1.21-0.76l0.94-0.79
				c5.52-4.61,9.21-8.8,11.07-12.57c2.03-4.04,2.8-8.45,2.33-13.22c-0.31-2.29-0.8-4.75-1.49-7.36c-0.68-2.62-1.67-5.71-2.96-9.28
				c-2.41-6.7-6.31-13.76-11.7-21.19c-5.9-8.36-12.96-16.11-21.21-23.24C814.14,907.2,814.46,909.78,814.91,912.58"/>
		</defs>
		<clipPath id="SVGID_26_">
			<use xlink:href="#SVGID_25_"  style="overflow:visible;"/>
		</clipPath>
		
			<linearGradient id="SVGID_27_" gradientUnits="userSpaceOnUse" x1="-3433.833" y1="726.7563" x2="-3430.1797" y2="726.7563" gradientTransform="matrix(6.6844 -2.4098 -2.4098 -6.6844 25525.0645 -2463.3394)">
			<stop  offset="0" style="stop-color:#E3322E"/>
			<stop  offset="0.0238" style="stop-color:#D63B3B"/>
			<stop  offset="0.1092" style="stop-color:#AD5867"/>
			<stop  offset="0.1989" style="stop-color:#8A718C"/>
			<stop  offset="0.2919" style="stop-color:#6D85AA"/>
			<stop  offset="0.3893" style="stop-color:#5794C1"/>
			<stop  offset="0.4932" style="stop-color:#479FD2"/>
			<stop  offset="0.6077" style="stop-color:#3EA6DC"/>
			<stop  offset="0.7542" style="stop-color:#3BA8DF"/>
			<stop  offset="0.7579" style="stop-color:#3BA8DF"/>
			<stop  offset="0.8659" style="stop-color:#3FA7DE"/>
			<stop  offset="0.9106" style="stop-color:#3CA8DF"/>
			<stop  offset="0.9114" style="stop-color:#3CA8DF"/>
			<stop  offset="0.9714" style="stop-color:#3EA8DF"/>
			<stop  offset="1" style="stop-color:#3EA8DF"/>
		</linearGradient>
		<polygon class="st11" points="785.69,915.05 847.42,892.8 880.02,983.22 818.29,1005.48 		"/>
	</g>
	<g>
		<polygon class="st2" points="1694.1,1100.36 1700.5,1118.05 1719.29,1118.67 1704.46,1130.23 1709.67,1148.3 1694.1,1137.75 
			1678.52,1148.3 1683.74,1130.23 1668.9,1118.67 1687.69,1118.05 		"/>
		<polygon class="st2" points="1744.5,1100.36 1750.9,1118.05 1769.7,1118.67 1754.86,1130.23 1760.08,1148.3 1744.5,1137.75 
			1728.92,1148.3 1734.14,1130.23 1719.3,1118.67 1738.1,1118.05 		"/>
		<polygon class="st2" points="1794.9,1100.36 1801.31,1118.05 1820.1,1118.67 1805.26,1130.23 1810.48,1148.3 1794.9,1137.75 
			1779.33,1148.3 1784.54,1130.23 1769.7,1118.67 1788.5,1118.05 		"/>
	</g>
	<g>
		<defs>
			<path id="SVGID_28_" d="M1797.04,936.48c0,28.9,20.69,46.24,54.15,58.1c27.68,10.65,38.63,21.6,38.63,40.76
				c0,20.69-15.82,34.99-42.89,34.99c-18.25,0-35.59-6.09-47.46-13.39l-6.69,22.21c10.95,7.3,32.55,13.08,52.32,13.08
				c48.37,0,71.8-27.38,71.8-59.02c0-30.12-17.65-46.85-52.32-60.23c-28.29-10.95-40.76-20.39-40.76-39.55
				c0-13.99,10.65-30.72,38.63-30.72c18.55,0,32.24,6.09,38.93,9.74l7.3-21.6c-9.13-5.17-24.33-10.04-45.32-10.04
				C1823.5,880.81,1797.04,904.54,1797.04,936.48"/>
		</defs>
		<clipPath id="SVGID_29_">
			<use xlink:href="#SVGID_28_"  style="overflow:visible;"/>
		</clipPath>
		
			<linearGradient id="SVGID_30_" gradientUnits="userSpaceOnUse" x1="-3902.7747" y1="963.821" x2="-3899.1213" y2="963.821" gradientTransform="matrix(33.9736 0 0 -33.9736 134384.2188 33731.0273)">
			<stop  offset="0" style="stop-color:#E3322E"/>
			<stop  offset="0.0238" style="stop-color:#D63B3B"/>
			<stop  offset="0.1092" style="stop-color:#AD5867"/>
			<stop  offset="0.1989" style="stop-color:#8A718C"/>
			<stop  offset="0.2919" style="stop-color:#6D85AA"/>
			<stop  offset="0.3893" style="stop-color:#5794C1"/>
			<stop  offset="0.4932" style="stop-color:#479FD2"/>
			<stop  offset="0.6077" style="stop-color:#3EA6DC"/>
			<stop  offset="0.7542" style="stop-color:#3BA8DF"/>
			<stop  offset="0.7579" style="stop-color:#3BA8DF"/>
			<stop  offset="0.8659" style="stop-color:#3FA7DE"/>
			<stop  offset="0.9106" style="stop-color:#3CA8DF"/>
			<stop  offset="0.9114" style="stop-color:#3CA8DF"/>
			<stop  offset="0.9714" style="stop-color:#3EA8DF"/>
			<stop  offset="1" style="stop-color:#3EA8DF"/>
		</linearGradient>
		<rect x="1792.78" y="880.81" class="st12" width="124.12" height="211.43"/>
	</g>
	<g>
		<defs>
			<path id="SVGID_31_" d="M1314.85,1113.48c-3.6,3.86-5.4,9.27-5.4,16.25c0,6.59,1.79,11.78,5.37,15.59
				c3.58,3.8,8.15,5.7,13.71,5.7c4.49,0,8.21-1.11,11.13-3.32c2.92-2.22,5.01-5.62,6.27-10.19l-8.2-2.6
				c-0.71,3.07-1.87,5.32-3.49,6.74c-1.62,1.43-3.55,2.14-5.8,2.14c-3.05,0-5.53-1.13-7.43-3.37c-1.9-2.25-2.86-6.02-2.86-11.31
				c0-4.99,0.97-8.6,2.9-10.83s4.45-3.34,7.56-3.34c2.25,0,4.16,0.63,5.73,1.88c1.57,1.26,2.6,2.97,3.1,5.14l8.37-2
				c-0.95-3.35-2.38-5.93-4.28-7.71c-3.2-3.03-7.36-4.54-12.49-4.54C1323.18,1107.7,1318.45,1109.62,1314.85,1113.48"/>
		</defs>
		<clipPath id="SVGID_32_">
			<use xlink:href="#SVGID_31_"  style="overflow:visible;"/>
		</clipPath>
		
			<linearGradient id="SVGID_33_" gradientUnits="userSpaceOnUse" x1="-3548.9392" y1="945.7216" x2="-3545.2856" y2="945.7216" gradientTransform="matrix(9.9863 0 0 -9.9863 36750.3164 10573.6377)">
			<stop  offset="0" style="stop-color:#E3322E"/>
			<stop  offset="0.0238" style="stop-color:#D63B3B"/>
			<stop  offset="0.1092" style="stop-color:#AD5867"/>
			<stop  offset="0.1989" style="stop-color:#8A718C"/>
			<stop  offset="0.2919" style="stop-color:#6D85AA"/>
			<stop  offset="0.3893" style="stop-color:#5794C1"/>
			<stop  offset="0.4932" style="stop-color:#479FD2"/>
			<stop  offset="0.6077" style="stop-color:#3EA6DC"/>
			<stop  offset="0.7542" style="stop-color:#3BA8DF"/>
			<stop  offset="0.7579" style="stop-color:#3BA8DF"/>
			<stop  offset="0.8659" style="stop-color:#3FA7DE"/>
			<stop  offset="0.9106" style="stop-color:#3CA8DF"/>
			<stop  offset="0.9114" style="stop-color:#3CA8DF"/>
			<stop  offset="0.9714" style="stop-color:#3EA8DF"/>
			<stop  offset="1" style="stop-color:#3EA8DF"/>
		</linearGradient>
		<rect x="1309.45" y="1107.7" class="st13" width="36.49" height="43.31"/>
	</g>
	<g>
		<defs>
			<rect id="SVGID_34_" x="1352.93" y="1108.41" width="8.46" height="41.89"/>
		</defs>
		<clipPath id="SVGID_35_">
			<use xlink:href="#SVGID_34_"  style="overflow:visible;"/>
		</clipPath>
		
			<linearGradient id="SVGID_36_" gradientUnits="userSpaceOnUse" x1="-1826.5546" y1="875.1224" x2="-1822.9003" y2="875.1224" gradientTransform="matrix(2.3154 0 0 -2.3154 5582.1919 3155.6355)">
			<stop  offset="0" style="stop-color:#E3322E"/>
			<stop  offset="0.0238" style="stop-color:#D63B3B"/>
			<stop  offset="0.1092" style="stop-color:#AD5867"/>
			<stop  offset="0.1989" style="stop-color:#8A718C"/>
			<stop  offset="0.2919" style="stop-color:#6D85AA"/>
			<stop  offset="0.3893" style="stop-color:#5794C1"/>
			<stop  offset="0.4932" style="stop-color:#479FD2"/>
			<stop  offset="0.6077" style="stop-color:#3EA6DC"/>
			<stop  offset="0.7542" style="stop-color:#3BA8DF"/>
			<stop  offset="0.7579" style="stop-color:#3BA8DF"/>
			<stop  offset="0.8659" style="stop-color:#3FA7DE"/>
			<stop  offset="0.9106" style="stop-color:#3CA8DF"/>
			<stop  offset="0.9114" style="stop-color:#3CA8DF"/>
			<stop  offset="0.9714" style="stop-color:#3EA8DF"/>
			<stop  offset="1" style="stop-color:#3EA8DF"/>
		</linearGradient>
		<rect x="1352.93" y="1108.41" class="st14" width="8.46" height="41.89"/>
	</g>
	<g>
		<defs>
			<polygon id="SVGID_37_" points="1366.45,1108.41 1366.45,1115.49 1378.88,1115.49 1378.88,1150.29 1387.33,1150.29 
				1387.33,1115.49 1399.73,1115.49 1399.73,1108.41 			"/>
		</defs>
		<clipPath id="SVGID_38_">
			<use xlink:href="#SVGID_37_"  style="overflow:visible;"/>
		</clipPath>
		
			<linearGradient id="SVGID_39_" gradientUnits="userSpaceOnUse" x1="-3494.8633" y1="943.6751" x2="-3491.21" y2="943.6751" gradientTransform="matrix(9.1113 0 0 -9.1113 33209.293 9727.4844)">
			<stop  offset="0" style="stop-color:#E3322E"/>
			<stop  offset="0.0238" style="stop-color:#D63B3B"/>
			<stop  offset="0.1092" style="stop-color:#AD5867"/>
			<stop  offset="0.1989" style="stop-color:#8A718C"/>
			<stop  offset="0.2919" style="stop-color:#6D85AA"/>
			<stop  offset="0.3893" style="stop-color:#5794C1"/>
			<stop  offset="0.4932" style="stop-color:#479FD2"/>
			<stop  offset="0.6077" style="stop-color:#3EA6DC"/>
			<stop  offset="0.7542" style="stop-color:#3BA8DF"/>
			<stop  offset="0.7579" style="stop-color:#3BA8DF"/>
			<stop  offset="0.8659" style="stop-color:#3FA7DE"/>
			<stop  offset="0.9106" style="stop-color:#3CA8DF"/>
			<stop  offset="0.9114" style="stop-color:#3CA8DF"/>
			<stop  offset="0.9714" style="stop-color:#3EA8DF"/>
			<stop  offset="1" style="stop-color:#3EA8DF"/>
		</linearGradient>
		<rect x="1366.45" y="1108.41" class="st15" width="33.29" height="41.89"/>
	</g>
	<g>
		<defs>
			<polygon id="SVGID_40_" points="1430.27,1108.41 1420.62,1124.98 1410.76,1108.41 1400.85,1108.41 1416.19,1132.67 
				1416.19,1150.29 1424.62,1150.29 1424.62,1132.72 1440.01,1108.41 			"/>
		</defs>
		<clipPath id="SVGID_41_">
			<use xlink:href="#SVGID_40_"  style="overflow:visible;"/>
		</clipPath>
		
			<linearGradient id="SVGID_42_" gradientUnits="userSpaceOnUse" x1="-3578.1226" y1="947.1832" x2="-3574.4695" y2="947.1832" gradientTransform="matrix(10.7217 0 0 -10.7217 39764.332 11284.7461)">
			<stop  offset="0" style="stop-color:#E3322E"/>
			<stop  offset="0.0238" style="stop-color:#D63B3B"/>
			<stop  offset="0.1092" style="stop-color:#AD5867"/>
			<stop  offset="0.1989" style="stop-color:#8A718C"/>
			<stop  offset="0.2919" style="stop-color:#6D85AA"/>
			<stop  offset="0.3893" style="stop-color:#5794C1"/>
			<stop  offset="0.4932" style="stop-color:#479FD2"/>
			<stop  offset="0.6077" style="stop-color:#3EA6DC"/>
			<stop  offset="0.7542" style="stop-color:#3BA8DF"/>
			<stop  offset="0.7579" style="stop-color:#3BA8DF"/>
			<stop  offset="0.8659" style="stop-color:#3FA7DE"/>
			<stop  offset="0.9106" style="stop-color:#3CA8DF"/>
			<stop  offset="0.9114" style="stop-color:#3CA8DF"/>
			<stop  offset="0.9714" style="stop-color:#3EA8DF"/>
			<stop  offset="1" style="stop-color:#3EA8DF"/>
		</linearGradient>
		<rect x="1400.85" y="1108.41" class="st16" width="39.17" height="41.89"/>
	</g>
	<g>
		<defs>
			<polygon id="SVGID_43_" points="1484.47,1108.41 1484.47,1124.9 1467.9,1124.9 1467.9,1108.41 1459.45,1108.41 1459.45,1150.29 
				1467.9,1150.29 1467.9,1131.98 1484.47,1131.98 1484.47,1150.29 1492.93,1150.29 1492.93,1108.41 			"/>
		</defs>
		<clipPath id="SVGID_44_">
			<use xlink:href="#SVGID_43_"  style="overflow:visible;"/>
		</clipPath>
		
			<linearGradient id="SVGID_45_" gradientUnits="userSpaceOnUse" x1="-3490.8943" y1="943.8145" x2="-3487.241" y2="943.8145" gradientTransform="matrix(9.166 0 0 -9.166 33457.0391 9780.3691)">
			<stop  offset="0" style="stop-color:#E3322E"/>
			<stop  offset="0.0238" style="stop-color:#D63B3B"/>
			<stop  offset="0.1092" style="stop-color:#AD5867"/>
			<stop  offset="0.1989" style="stop-color:#8A718C"/>
			<stop  offset="0.2919" style="stop-color:#6D85AA"/>
			<stop  offset="0.3893" style="stop-color:#5794C1"/>
			<stop  offset="0.4932" style="stop-color:#479FD2"/>
			<stop  offset="0.6077" style="stop-color:#3EA6DC"/>
			<stop  offset="0.7542" style="stop-color:#3BA8DF"/>
			<stop  offset="0.7579" style="stop-color:#3BA8DF"/>
			<stop  offset="0.8659" style="stop-color:#3FA7DE"/>
			<stop  offset="0.9106" style="stop-color:#3CA8DF"/>
			<stop  offset="0.9114" style="stop-color:#3CA8DF"/>
			<stop  offset="0.9714" style="stop-color:#3EA8DF"/>
			<stop  offset="1" style="stop-color:#3EA8DF"/>
		</linearGradient>
		<rect x="1459.45" y="1108.41" class="st17" width="33.49" height="41.89"/>
	</g>
	<g>
		<defs>
			<path id="SVGID_46_" d="M1511.96,1140.11c-2.19-2.45-3.29-6.04-3.29-10.78c0-4.82,1.07-8.42,3.2-10.81
				c2.13-2.39,4.94-3.58,8.43-3.58c3.49,0,6.28,1.18,8.38,3.54c2.1,2.36,3.16,5.94,3.16,10.74c0,4.86-1.08,8.5-3.24,10.93
				c-2.16,2.43-4.93,3.64-8.3,3.64S1514.15,1142.56,1511.96,1140.11 M1511.19,1109.35c-1.96,0.82-3.77,2.08-5.42,3.77
				c-1.64,1.7-2.94,3.61-3.9,5.74c-1.27,2.9-1.91,6.47-1.91,10.74c0,6.67,1.84,11.9,5.51,15.7c3.68,3.8,8.63,5.7,14.86,5.7
				c6.15,0,11.06-1.91,14.74-5.72c3.68-3.82,5.51-9.11,5.51-15.87c0-6.81-1.85-12.14-5.56-15.97c-3.7-3.83-8.64-5.74-14.81-5.74
				C1516.81,1107.7,1513.8,1108.25,1511.19,1109.35"/>
		</defs>
		<clipPath id="SVGID_47_">
			<use xlink:href="#SVGID_46_"  style="overflow:visible;"/>
		</clipPath>
		
			<linearGradient id="SVGID_48_" gradientUnits="userSpaceOnUse" x1="-3589.084" y1="947.8943" x2="-3585.4307" y2="947.8943" gradientTransform="matrix(11.1201 0 0 -11.1201 41410.9961 11670.0469)">
			<stop  offset="0" style="stop-color:#E3322E"/>
			<stop  offset="0.0238" style="stop-color:#D63B3B"/>
			<stop  offset="0.1092" style="stop-color:#AD5867"/>
			<stop  offset="0.1989" style="stop-color:#8A718C"/>
			<stop  offset="0.2919" style="stop-color:#6D85AA"/>
			<stop  offset="0.3893" style="stop-color:#5794C1"/>
			<stop  offset="0.4932" style="stop-color:#479FD2"/>
			<stop  offset="0.6077" style="stop-color:#3EA6DC"/>
			<stop  offset="0.7542" style="stop-color:#3BA8DF"/>
			<stop  offset="0.7579" style="stop-color:#3BA8DF"/>
			<stop  offset="0.8659" style="stop-color:#3FA7DE"/>
			<stop  offset="0.9106" style="stop-color:#3CA8DF"/>
			<stop  offset="0.9114" style="stop-color:#3CA8DF"/>
			<stop  offset="0.9714" style="stop-color:#3EA8DF"/>
			<stop  offset="1" style="stop-color:#3EA8DF"/>
		</linearGradient>
		<rect x="1499.96" y="1107.7" class="st18" width="40.62" height="43.31"/>
	</g>
	<g>
		<defs>
			<polygon id="SVGID_49_" points="1544.19,1108.41 1544.19,1115.49 1556.62,1115.49 1556.62,1150.29 1565.07,1150.29 
				1565.07,1115.49 1577.47,1115.49 1577.47,1108.41 			"/>
		</defs>
		<clipPath id="SVGID_50_">
			<use xlink:href="#SVGID_49_"  style="overflow:visible;"/>
		</clipPath>
		
			<linearGradient id="SVGID_51_" gradientUnits="userSpaceOnUse" x1="-3480.6956" y1="943.6751" x2="-3477.042" y2="943.6751" gradientTransform="matrix(9.1113 0 0 -9.1113 33257.9453 9727.4844)">
			<stop  offset="0" style="stop-color:#E3322E"/>
			<stop  offset="0.0238" style="stop-color:#D63B3B"/>
			<stop  offset="0.1092" style="stop-color:#AD5867"/>
			<stop  offset="0.1989" style="stop-color:#8A718C"/>
			<stop  offset="0.2919" style="stop-color:#6D85AA"/>
			<stop  offset="0.3893" style="stop-color:#5794C1"/>
			<stop  offset="0.4932" style="stop-color:#479FD2"/>
			<stop  offset="0.6077" style="stop-color:#3EA6DC"/>
			<stop  offset="0.7542" style="stop-color:#3BA8DF"/>
			<stop  offset="0.7579" style="stop-color:#3BA8DF"/>
			<stop  offset="0.8659" style="stop-color:#3FA7DE"/>
			<stop  offset="0.9106" style="stop-color:#3CA8DF"/>
			<stop  offset="0.9114" style="stop-color:#3CA8DF"/>
			<stop  offset="0.9714" style="stop-color:#3EA8DF"/>
			<stop  offset="1" style="stop-color:#3EA8DF"/>
		</linearGradient>
		<rect x="1544.19" y="1108.41" class="st19" width="33.29" height="41.89"/>
	</g>
	<g>
		<defs>
			<polygon id="SVGID_52_" points="1582.93,1108.41 1582.93,1150.29 1614.79,1150.29 1614.79,1143.24 1591.39,1143.24 
				1591.39,1131.84 1612.41,1131.84 1612.41,1124.78 1591.39,1124.78 1591.39,1115.49 1613.99,1115.49 1613.99,1108.41 			"/>
		</defs>
		<clipPath id="SVGID_53_">
			<use xlink:href="#SVGID_52_"  style="overflow:visible;"/>
		</clipPath>
		
			<linearGradient id="SVGID_54_" gradientUnits="userSpaceOnUse" x1="-3451.2402" y1="942.6262" x2="-3447.5867" y2="942.6262" gradientTransform="matrix(8.7197 0 0 -8.7197 31676.7988 9348.7939)">
			<stop  offset="0" style="stop-color:#E3322E"/>
			<stop  offset="0.0238" style="stop-color:#D63B3B"/>
			<stop  offset="0.1092" style="stop-color:#AD5867"/>
			<stop  offset="0.1989" style="stop-color:#8A718C"/>
			<stop  offset="0.2919" style="stop-color:#6D85AA"/>
			<stop  offset="0.3893" style="stop-color:#5794C1"/>
			<stop  offset="0.4932" style="stop-color:#479FD2"/>
			<stop  offset="0.6077" style="stop-color:#3EA6DC"/>
			<stop  offset="0.7542" style="stop-color:#3BA8DF"/>
			<stop  offset="0.7579" style="stop-color:#3BA8DF"/>
			<stop  offset="0.8659" style="stop-color:#3FA7DE"/>
			<stop  offset="0.9106" style="stop-color:#3CA8DF"/>
			<stop  offset="0.9114" style="stop-color:#3CA8DF"/>
			<stop  offset="0.9714" style="stop-color:#3EA8DF"/>
			<stop  offset="1" style="stop-color:#3EA8DF"/>
		</linearGradient>
		<rect x="1582.93" y="1108.41" class="st20" width="31.86" height="41.89"/>
	</g>
	<g>
		<defs>
			<polygon id="SVGID_55_" points="1622.19,1108.76 1622.19,1150.29 1651.67,1150.29 1651.67,1143.24 1630.64,1143.24 
				1630.64,1108.76 			"/>
		</defs>
		<clipPath id="SVGID_56_">
			<use xlink:href="#SVGID_55_"  style="overflow:visible;"/>
		</clipPath>
		
			<linearGradient id="SVGID_57_" gradientUnits="userSpaceOnUse" x1="-3398.4216" y1="940.6498" x2="-3394.7683" y2="940.6498" gradientTransform="matrix(8.0713 0 0 -8.0713 29051.8301 8721.7803)">
			<stop  offset="0" style="stop-color:#E3322E"/>
			<stop  offset="0.0238" style="stop-color:#D63B3B"/>
			<stop  offset="0.1092" style="stop-color:#AD5867"/>
			<stop  offset="0.1989" style="stop-color:#8A718C"/>
			<stop  offset="0.2919" style="stop-color:#6D85AA"/>
			<stop  offset="0.3893" style="stop-color:#5794C1"/>
			<stop  offset="0.4932" style="stop-color:#479FD2"/>
			<stop  offset="0.6077" style="stop-color:#3EA6DC"/>
			<stop  offset="0.7542" style="stop-color:#3BA8DF"/>
			<stop  offset="0.7579" style="stop-color:#3BA8DF"/>
			<stop  offset="0.8659" style="stop-color:#3FA7DE"/>
			<stop  offset="0.9106" style="stop-color:#3CA8DF"/>
			<stop  offset="0.9114" style="stop-color:#3CA8DF"/>
			<stop  offset="0.9714" style="stop-color:#3EA8DF"/>
			<stop  offset="1" style="stop-color:#3EA8DF"/>
		</linearGradient>
		<rect x="1622.19" y="1108.76" class="st21" width="29.49" height="41.54"/>
	</g>
</g>
</svg>
